<svg xmlns="http://www.w3.org/2000/svg" viewBox="0 0 1200 1200"><defs><style>.cls-1{isolation:isolate;}.cls-2{fill:#fff;}.cls-3,.cls-4{fill:#646d78;}.cls-4{opacity:0.51;}.cls-5{fill:#996d59;}.cls-6{fill:#eaaa76;}.cls-7{fill:#f4b687;}.cls-8{fill:#8e6351;}.cls-9{fill:#ffce54;}.cls-10{fill:#ffdec7;}.cls-11{fill:#3bafda;}.cls-12{fill:#e77e36;}.cls-13,.cls-22{fill:#a66431;}.cls-14{fill:#7f5732;}.cls-15{fill:#62381a;}.cls-16{fill:#ddbf0e;}.cls-17{fill:#f9db26;}.cls-18{fill:#ef8943;}.cls-19{fill:#f5e3c6;}.cls-20{fill:#ea573f;}.cls-21{fill:#8dc050;}.cls-22{opacity:0.4;mix-blend-mode:multiply;}.cls-23{fill:#5ae8ff;}.cls-24{fill:#edeef2;}.cls-25{fill:#4fc1e9;}</style></defs><title>Glycemia</title><g class="cls-1"><g id="background"><rect class="cls-2" width="1200" height="1200"/></g><g id="elements"><circle class="cls-3" cx="1130.86" cy="891.47" r="30.36"/><path class="cls-4" d="M818,1038.5c-3.65-6.47-34.33-19-47.26-18.53,0,.23-.09.54-.16.91l-3.88-1.42v-6.81a213.49,213.49,0,0,0,36.75-5.87s22.75-62.33,4.69-102.51a10.44,10.44,0,0,0-.9-1.58c-3.42-6.37-9-12.52-17.74-17.93,0,0-19-11-30.51-2.47,0,0-23.73-7.67-37.49,5-8.38,7.72-13.41,15.79-16.25,23.59h0s-18.13,33.06,2.2,95.74a202.61,202.61,0,0,0,35.87,6v6.81l-4.09,1.29c-.05-.27-.1-.52-.12-.71-12.93-.5-43.61,12.06-47.26,18.53-5.14,9.11-19.84,76.1-19.84,76.1h23.64L710.53,1060l9.19,54.58h70.36l9.19-54.58,14.92,54.58h23.64S823.11,1047.61,818,1038.5Z"/><path class="cls-4" d="M847.95,1038.5c-3.65-6.47-34.33-19-47.26-18.53,0,.23-.09.54-.16.91l-3.88-1.42v-6.81a213.49,213.49,0,0,0,36.75-5.87s22.75-62.33,4.69-102.51a10.44,10.44,0,0,0-.9-1.58c-3.42-6.37-9-12.52-17.74-17.93,0,0-19-11-30.51-2.47,0,0-23.73-7.67-37.49,5-8.38,7.72-13.41,15.79-16.25,23.59h0s-18.13,33.06,2.2,95.74a202.61,202.61,0,0,0,35.87,6v6.81l-4.09,1.29c-.06-.27-.1-.52-.12-.71-12.93-.5-43.61,12.06-47.26,18.53-5.14,9.11-19.84,76.1-19.84,76.1h23.64L740.5,1060l9.19,54.58H820l9.19-54.58,14.92,54.58h23.64S853.08,1047.61,847.95,1038.5Z"/><path class="cls-5" d="M107.1,306.15S89,339.21,109.3,401.89c34.2,8.69,62.27,8.37,96,.17,0,0,22.75-62.33,4.69-102.51C199.32,275.8,107.1,306.15,107.1,306.15Z"/><rect class="cls-6" x="145.17" y="387.02" width="23.38" height="34.97"/><path class="cls-7" d="M211.17,321.79s-10.34,85-55.37,84.29c-38.72-.61-49-72.3-49-72.3C96.72,318.86,192.63,240.4,211.17,321.79Z"/><path class="cls-6" d="M129.91,419.48l27.78-8.73,33.21,12.19,9.27,18.79L158.8,468s-23.52-18-24.47-19.3-15.16-17.13-15.16-18.44S129.91,419.48,129.91,419.48Z"/><path class="cls-7" d="M194.78,354.29c-1.57,6.42.73,12.2,5.12,12.91s9.22-3.92,10.78-10.34-.73-12.2-5.12-12.91S196.35,347.87,194.78,354.29Z"/><path class="cls-7" d="M105.63,359.83c3,5.87,8.56,8.72,12.34,6.37s4.37-9,1.34-14.88-8.56-8.72-12.34-6.37S102.59,354,105.63,359.83Z"/><path class="cls-8" d="M191.86,342.35c-7.83-2.53-15.23-2.85-22.18-.78l.1-3c6.8-2.26,14.21-1.93,22.18.78Z"/><path class="cls-8" d="M161.3,386.56l-8.85-.17c-1.08,0-1-3,.06-3l8.85.17C162.33,383.61,162.27,386.58,161.3,386.56Z"/><path class="cls-8" d="M123.46,342.35c7.83-2.53,15.23-2.85,22.18-.78l-.1-3c-6.8-2.26-14.21-1.93-22.18.78Z"/><ellipse class="cls-8" cx="178.64" cy="351.65" rx="4.64" ry="4.83"/><path class="cls-9" d="M219.85,433.79c-3.65-6.47-34.33-19-47.26-18.53-.51,4-8.27,28.63-15.82,28.8-7.55-.17-15.31-24.77-15.82-28.8-12.93-.5-43.61,12.06-47.26,18.53-5.14,9.11-19.84,76.1-19.84,76.1H97.49l14.92-54.58,9.19,54.58H192l9.19-54.58,14.92,54.58H239.7S225,442.89,219.85,433.79Z"/><path class="cls-5" d="M160.84,277.56s-23.73-7.67-37.49,5C89,314.22,110.78,352,110.78,352s10.47-35.4,64.05-43.4L202.3,350.9s31.75-44.35-11-70.88C191.35,280,172.38,269.06,160.84,277.56Z"/><path class="cls-5" d="M175.32,309.32S147.81,321.16,136,345.84c0,0,9-36.9,45.16-56.71Z"/><path class="cls-8" d="M169.68,350.81s9.49-11.12,19.37,0C189.05,350.81,178.69,344.18,169.68,350.81Z"/><ellipse class="cls-8" cx="135.22" cy="351.65" rx="4.64" ry="4.83"/><path class="cls-8" d="M144.18,350.81s-9.49-11.12-19.37,0C124.81,350.81,135.17,344.18,144.18,350.81Z"/><path class="cls-5" d="M357,306.15s-18.13,33.06,2.2,95.74c34.2,8.69,62.27,8.37,96,.17,0,0,22.75-62.33,4.69-102.51C449.25,275.8,357,306.15,357,306.15Z"/><rect class="cls-10" x="395.1" y="387.02" width="23.38" height="34.97"/><path class="cls-10" d="M461.1,321.79s-10.34,85-55.37,84.29c-38.72-.61-49-72.3-49-72.3C346.65,318.86,442.56,240.4,461.1,321.79Z"/><path class="cls-10" d="M379.83,419.48l27.78-8.73,33.21,12.19,9.27,18.79L408.72,468s-23.52-18-24.47-19.3-15.16-17.13-15.16-18.44S379.83,419.48,379.83,419.48Z"/><path class="cls-10" d="M444.71,354.29c-1.56,6.42.73,12.2,5.12,12.91s9.22-3.92,10.78-10.34-.73-12.2-5.12-12.91S446.28,347.87,444.71,354.29Z"/><path class="cls-10" d="M355.56,359.83c3,5.87,8.56,8.72,12.34,6.37s4.37-9,1.34-14.88-8.56-8.72-12.34-6.37S352.52,354,355.56,359.83Z"/><path class="cls-8" d="M440.38,345.62c-6.66-4.83-13.6-7.42-20.85-7.6l1-2.79c7.17,0,14.11,2.56,20.85,7.6Z"/><path class="cls-8" d="M375,346c6.49-5.06,13.33-7.9,20.57-8.33l-1.11-2.75c-7.17.21-14,3.05-20.57,8.33Z"/><ellipse class="cls-8" cx="428.56" cy="351.65" rx="4.64" ry="4.83"/><path class="cls-8" d="M404.5,362.36s-10.26,5.93,0,11.39A9,9,0,0,1,404.5,362.36Z"/><path class="cls-8" d="M152.29,362.36s-10.26,5.93,0,11.39A9,9,0,0,1,152.29,362.36Z"/><path class="cls-9" d="M469.78,433.79c-3.65-6.47-34.33-19-47.26-18.53-.51,4-8.27,28.63-15.82,28.8-7.55-.17-15.31-24.77-15.82-28.8-12.93-.5-43.61,12.06-47.26,18.53-5.14,9.11-19.84,76.1-19.84,76.1h23.64l14.92-54.58,9.19,54.58h70.36l9.19-54.58L466,509.89h23.64S474.92,442.89,469.78,433.79Z"/><path class="cls-5" d="M410.77,277.56s-23.73-7.67-37.49,5C338.9,314.22,360.7,352,360.7,352s10.47-35.4,64.05-43.4l27.47,42.35s31.75-44.35-11-70.88C441.28,280,422.3,269.06,410.77,277.56Z"/><path class="cls-5" d="M425.25,309.32S397.74,321.16,386,345.84c0,0,9-36.9,45.16-56.71Z"/><path class="cls-8" d="M419.61,351.86s9.49-11.12,19.37,0C439,351.86,428.61,345.23,419.61,351.86Z"/><ellipse class="cls-8" cx="385.15" cy="351.65" rx="4.64" ry="4.83"/><path class="cls-8" d="M394.1,351.86s-9.49-11.12-19.37,0C374.73,351.86,385.1,345.23,394.1,351.86Z"/><path class="cls-5" d="M107.1,608.51S89,641.56,109.3,704.25c34.2,8.69,62.27,8.37,96,.17,0,0,22.75-62.33,4.69-102.51C199.32,578.16,107.1,608.51,107.1,608.51Z"/><rect class="cls-6" x="145.17" y="689.38" width="23.38" height="34.97"/><path class="cls-7" d="M211.17,624.14s-10.34,85-55.37,84.29c-38.72-.61-49-72.3-49-72.3C96.72,621.22,192.63,542.76,211.17,624.14Z"/><path class="cls-6" d="M129.91,721.83l27.78-8.73L190.9,725.3l9.27,18.79L158.8,770.4s-23.52-18-24.47-19.3S119.17,734,119.17,732.66,129.91,721.83,129.91,721.83Z"/><path class="cls-7" d="M194.78,656.64c-1.57,6.42.73,12.2,5.12,12.91s9.22-3.92,10.78-10.34S210,647,205.57,646.3,196.35,650.22,194.78,656.64Z"/><path class="cls-7" d="M105.63,662.18c3,5.87,8.56,8.72,12.34,6.37s4.37-9,1.34-14.88S110.74,645,107,647.3,102.59,656.31,105.63,662.18Z"/><path class="cls-8" d="M167.38,650.91c7.9-2.3,14.21-6.18,18.8-11.79l1.58,2.51c-4.37,5.69-10.68,9.57-18.8,11.79Z"/><path class="cls-8" d="M163.42,685.37a24.46,24.46,0,0,0-15.44-.3c-1.89,0-1.85-2.1,0-2.06,4.71-1.65,9.92-1.3,15.44.3C165.15,683.34,165.11,685.4,163.42,685.37Z"/><path class="cls-8" d="M146.06,652.62c-7.32-3.74-12.79-8.75-16.24-15.13l-2,2.17c3.21,6.41,8.68,11.42,16.24,15.13Z"/><ellipse class="cls-8" cx="178.64" cy="654.01" rx="4.64" ry="4.83"/><path class="cls-8" d="M154.57,664.72s-10.26,5.93,0,11.39A9,9,0,0,1,154.57,664.72Z"/><path class="cls-9" d="M219.85,736.15c-3.65-6.47-34.33-19-47.26-18.53-.51,4-8.27,28.63-15.82,28.8-7.55-.17-15.31-24.77-15.82-28.8-12.93-.5-43.61,12.06-47.26,18.53-5.14,9.11-19.84,76.1-19.84,76.1H97.49l14.92-54.58,9.19,54.58H192l9.19-54.58,14.92,54.58H239.7S225,745.25,219.85,736.15Z"/><path class="cls-5" d="M160.84,579.91s-23.73-7.67-37.49,5c-34.38,31.67-12.57,69.4-12.57,69.4s10.47-35.4,64.05-43.4l27.47,42.35s31.75-44.35-11-70.88C191.35,582.39,172.38,571.41,160.84,579.91Z"/><path class="cls-5" d="M175.32,611.67S147.81,623.51,136,648.19c0,0,9-36.9,45.16-56.71Z"/><path class="cls-8" d="M169.68,653.16s9.49-11.12,19.37,0C189.05,653.16,178.69,646.54,169.68,653.16Z"/><ellipse class="cls-8" cx="135.22" cy="654.01" rx="4.64" ry="4.83"/><path class="cls-8" d="M144.18,653.16s-9.49-11.12-19.37,0C124.81,653.16,135.17,646.54,144.18,653.16Z"/><path class="cls-5" d="M357,608.51s-18.13,33.06,2.2,95.74c34.2,8.69,62.27,8.37,96,.17,0,0,22.75-62.33,4.69-102.51C449.25,578.16,357,608.51,357,608.51Z"/><rect class="cls-6" x="395.1" y="689.38" width="23.38" height="34.97"/><path class="cls-7" d="M461.1,624.14s-10.34,85-55.37,84.29c-38.72-.61-49-72.3-49-72.3C346.65,621.22,442.56,542.76,461.1,624.14Z"/><path class="cls-6" d="M379.83,721.83l27.78-8.73,33.21,12.19,9.27,18.79L408.72,770.4s-23.52-18-24.47-19.3S369.1,734,369.1,732.66,379.83,721.83,379.83,721.83Z"/><path class="cls-7" d="M444.71,656.64c-1.56,6.42.73,12.2,5.12,12.91s9.22-3.92,10.78-10.34-.73-12.2-5.12-12.91S446.28,650.22,444.71,656.64Z"/><path class="cls-7" d="M355.56,662.18c3,5.87,8.56,8.72,12.34,6.37s4.37-9,1.34-14.88-8.56-8.72-12.34-6.37S352.52,656.31,355.56,662.18Z"/><path class="cls-8" d="M441.79,642.09c-7.83-2.53-15.23-2.85-22.18-.78l.1-3c6.81-2.26,14.21-1.93,22.18.78Z"/><path class="cls-8" d="M373.38,642.09c7.83-2.53,15.23-2.85,22.18-.78l-.1-3c-6.8-2.26-14.21-1.93-22.18.78Z"/><ellipse class="cls-8" cx="428.56" cy="654.64" rx="4.64" ry="4.83"/><path class="cls-8" d="M404.91,659.47s-10.26,5.93,0,11.39A9,9,0,0,1,404.91,659.47Z"/><path class="cls-9" d="M469.78,736.15c-3.65-6.47-34.33-19-47.26-18.53-.51,4-8.27,28.63-15.82,28.8-7.55-.17-15.31-24.77-15.82-28.8-12.93-.5-43.61,12.06-47.26,18.53-5.14,9.11-19.84,76.1-19.84,76.1h23.64l14.92-54.58,9.19,54.58h70.36l9.19-54.58L466,812.25h23.64S474.92,745.25,469.78,736.15Z"/><path class="cls-5" d="M410.77,579.91s-23.73-7.67-37.49,5c-34.38,31.67-12.57,69.4-12.57,69.4s10.47-35.4,64.05-43.4l27.47,42.35s31.75-44.35-11-70.88C441.28,582.39,422.3,571.41,410.77,579.91Z"/><path class="cls-5" d="M425.25,611.67S397.74,623.51,386,648.19c0,0,9-36.9,45.16-56.71Z"/><path class="cls-8" d="M419.61,650.67s9.49-11.12,19.37,0C439,650.67,428.61,644,419.61,650.67Z"/><ellipse class="cls-8" cx="385.15" cy="654.64" rx="4.64" ry="4.83"/><path class="cls-8" d="M394.1,650.69s-9.49-11.12-19.37,0C374.73,650.69,385.1,644.07,394.1,650.69Z"/><path class="cls-5" d="M107.1,910.86S89,943.92,109.3,1006.6c34.2,8.69,62.27,8.37,96,.17,0,0,22.75-62.33,4.69-102.51C199.32,880.52,107.1,910.86,107.1,910.86Z"/><rect class="cls-6" x="145.17" y="991.73" width="23.38" height="34.97"/><path class="cls-7" d="M211.17,926.5s-10.34,85-55.37,84.29c-38.72-.61-49-72.3-49-72.3C96.72,923.57,192.63,845.11,211.17,926.5Z"/><path class="cls-6" d="M129.91,1024.19l27.78-8.73,33.21,12.19,9.27,18.79-41.37,26.32s-23.52-18-24.47-19.3-15.16-17.13-15.16-18.44S129.91,1024.19,129.91,1024.19Z"/><path class="cls-7" d="M194.78,959c-1.57,6.42.73,12.2,5.12,12.91s9.22-3.92,10.78-10.34-.73-12.2-5.12-12.91S196.35,952.58,194.78,959Z"/><path class="cls-7" d="M105.63,964.54c3,5.87,8.56,8.72,12.34,6.37s4.37-9,1.34-14.88-8.56-8.72-12.34-6.37S102.59,958.67,105.63,964.54Z"/><path class="cls-8" d="M191.86,947.07c-7.83-2.53-15.23-2.85-22.18-.78l.1-3c6.8-2.26,14.21-1.93,22.18.78Z"/><path class="cls-8" d="M123.46,947.07c7.83-2.53,15.23-2.85,22.18-.78l-.1-3c-6.8-2.26-14.21-1.93-22.18.78Z"/><ellipse class="cls-8" cx="174.89" cy="956.66" rx="3.31" ry="3.44"/><ellipse class="cls-8" cx="138.64" cy="956.66" rx="3.31" ry="3.44"/><path class="cls-8" d="M154.57,967.08s-10.26,5.93,0,11.39A9,9,0,0,1,154.57,967.08Z"/><path class="cls-9" d="M219.85,1038.5c-3.65-6.47-34.33-19-47.26-18.53-.51,4-8.27,28.63-15.82,28.8-7.55-.17-15.31-24.77-15.82-28.8-12.93-.5-43.61,12.06-47.26,18.53-5.14,9.11-19.84,76.1-19.84,76.1H97.49L112.41,1060l9.19,54.58H192l9.19-54.58,14.92,54.58H239.7S225,1047.61,219.85,1038.5Z"/><path class="cls-5" d="M160.84,882.27s-23.73-7.67-37.49,5c-34.38,31.67-12.57,69.4-12.57,69.4s10.47-35.4,64.05-43.4l27.47,42.35s31.75-44.35-11-70.88C191.35,884.74,172.38,873.77,160.84,882.27Z"/><path class="cls-5" d="M175.32,914S147.81,925.87,136,950.55c0,0,9-36.9,45.16-56.71Z"/><path class="cls-8" d="M169.68,955.52s9.49-11.12,19.37,0C189.05,955.52,178.69,948.89,169.68,955.52Z"/><path class="cls-8" d="M144.18,955.52s-9.49-11.12-19.37,0C124.81,955.52,135.17,948.89,144.18,955.52Z"/><path class="cls-5" d="M376.08,905.28s-20.41,30.7-12.4,96.1c31.91,15,72.39,22.74,107.06,21.12,0,0,13.92-59.33,7.6-104.1C474.71,892.63,376.08,905.28,376.08,905.28Z"/><rect class="cls-6" x="395.1" y="991.73" width="23.38" height="34.97"/><path class="cls-7" d="M475.27,940.47s-26.35,81.47-70.42,72.2c-37.89-8-34.33-80.31-34.33-80.31C363.47,915.78,472.58,857,475.27,940.47Z"/><path class="cls-6" d="M379.83,1024.19l27.78-8.73,33.21,12.19,9.27,18.79-41.37,26.32s-23.52-18-24.47-19.3S369.1,1036.32,369.1,1035,379.83,1024.19,379.83,1024.19Z"/><path class="cls-7" d="M453,969.25c-2.76,6-1.61,12.11,2.56,13.65s9.8-2.09,12.56-8.1,1.61-12.11-2.56-13.65S455.74,963.24,453,969.25Z"/><path class="cls-7" d="M364.41,957.69c1.86,6.34,6.74,10.19,10.89,8.61s6-8,4.15-14.35-6.74-10.19-10.89-8.61S362.55,951.35,364.41,957.69Z"/><path class="cls-8" d="M453.14,953.82c-7.2-4-14.41-5.7-21.62-5l.67-2.89c7.11-.92,14.32.81,21.62,5Z"/><path class="cls-8" d="M386.77,940.52c8.16-1,15.5.1,21.92,3.46l.46-2.93c-6.25-3.51-13.58-4.61-21.92-3.46Z"/><path class="cls-8" d="M412.49,980.92s11.63-2.3,3.68-10.78A9,9,0,0,1,412.49,980.92Z"/><path class="cls-9" d="M469.78,1038.5c-3.65-6.47-34.33-19-47.26-18.53-.51,4-8.27,28.63-15.82,28.8-7.55-.17-15.31-24.77-15.82-28.8-12.93-.5-43.61,12.06-47.26,18.53-5.14,9.11-19.84,76.1-19.84,76.1h23.64L362.34,1060l9.19,54.58h70.36l9.19-54.58L466,1114.6h23.64S474.92,1047.61,469.78,1038.5Z"/><path class="cls-5" d="M434.29,887.45s-21.83-12.05-37.75-2.24C356.74,909.75,371,950.94,371,950.94s17-32.75,71.15-30.39L461,967.36s39.62-37.48,2.76-71.66C463.77,895.7,447.23,881.31,434.29,887.45Z"/><path class="cls-5" d="M442.45,921.39s-29.26,6.38-45.53,28.36c0,0,15.88-34.51,55.14-47.07Z"/><path class="cls-8" d="M404.22,954.88c-.65,1-12.62,11-19-3.69C385.21,951.19,394.12,959.67,404.22,954.88Z"/><path class="cls-8" d="M429.26,959.74c.62,1.35,8.14,14.8,19,3.69C448.27,963.43,436.84,968,429.26,959.74Z"/><path class="cls-11" d="M184.88,334.9h0a3.79,3.79,0,0,0-.2-.55l-3.48-9.66-3.48,9.66a3.79,3.79,0,0,0-.2.55h0a3.82,3.82,0,1,0,7.36,0Z"/><path class="cls-11" d="M192.73,368.55h0a3.78,3.78,0,0,0-.2-.55l-3.48-9.66L185.57,368a3.78,3.78,0,0,0-.2.55h0a3.82,3.82,0,1,0,7.36,0Z"/><path class="cls-11" d="M184.88,397.24h0a3.79,3.79,0,0,0-.2-.55L181.2,387l-3.48,9.66a3.79,3.79,0,0,0-.2.55h0a3.82,3.82,0,1,0,7.36,0Z"/><path class="cls-11" d="M122.85,361h0a3.78,3.78,0,0,0-.2-.55l-3.48-9.66-3.48,9.66a3.78,3.78,0,0,0-.2.55h0a3.82,3.82,0,1,0,7.36,0Z"/><path class="cls-11" d="M122.85,382.19h0a3.79,3.79,0,0,0-.2-.55L119.17,372l-3.48,9.66a3.79,3.79,0,0,0-.2.55h0a3.82,3.82,0,1,0,7.36,0Z"/><path class="cls-11" d="M134.27,397.24h0a3.79,3.79,0,0,0-.2-.55L130.59,387l-3.48,9.66a3.8,3.8,0,0,0-.2.55h0a3.82,3.82,0,1,0,7.36,0Z"/><path class="cls-8" d="M410,385.46l-8.85-.17c-1.08,0-1-3,.06-3l8.85.17C411.07,382.51,411,385.47,410,385.46Z"/><path class="cls-8" d="M159.77,989.7l-8.85-.17c-1.08,0-1-3,.06-3l8.85.17C160.8,986.75,160.74,989.72,159.77,989.7Z"/><circle class="cls-2" cx="136.84" cy="652.35" r="0.81"/><circle class="cls-2" cx="137.65" cy="350.2" r="0.81"/><circle class="cls-2" cx="181.63" cy="350.2" r="0.81"/><circle class="cls-2" cx="387.68" cy="350.2" r="0.81"/><circle class="cls-2" cx="431.66" cy="350.2" r="0.81"/><circle class="cls-2" cx="181.2" cy="652.35" r="0.81"/><circle class="cls-2" cx="387.01" cy="656.26" r="0.81"/><circle class="cls-2" cx="431.13" cy="656.26" r="0.81"/><path class="cls-5" d="M969.59,306.15s-18.13,33.06,2.2,95.74c34.2,8.69,62.27,8.37,96,.17,0,0,22.75-62.33,4.69-102.51C1061.81,275.8,969.59,306.15,969.59,306.15Z"/><rect class="cls-6" x="1007.66" y="387.02" width="23.38" height="34.97"/><path class="cls-7" d="M1073.66,321.79s-10.34,85-55.37,84.29c-38.72-.61-49-72.3-49-72.3C959.21,318.86,1055.12,240.4,1073.66,321.79Z"/><path class="cls-6" d="M992.39,419.48l27.78-8.73,33.21,12.19,9.28,18.79L1021.28,468s-23.52-18-24.47-19.3-15.16-17.13-15.16-18.44S992.39,419.48,992.39,419.48Z"/><path class="cls-7" d="M1057.27,354.29c-1.57,6.42.73,12.2,5.12,12.91s9.22-3.92,10.78-10.34-.73-12.2-5.12-12.91S1058.83,347.87,1057.27,354.29Z"/><path class="cls-7" d="M968.12,359.83c3,5.87,8.56,8.72,12.34,6.37s4.37-9,1.34-14.88-8.56-8.72-12.34-6.37S965.08,354,968.12,359.83Z"/><path class="cls-8" d="M1054.35,342.35c-7.83-2.53-15.23-2.85-22.18-.78l.1-3c6.8-2.26,14.21-1.93,22.18.78Z"/><path class="cls-8" d="M985.94,342.35c7.83-2.53,15.23-2.85,22.18-.78l-.1-3c-6.8-2.26-14.21-1.93-22.18.78Z"/><ellipse class="cls-8" cx="1041.12" cy="351.65" rx="4.64" ry="4.83"/><path class="cls-9" d="M1082.34,433.79c-3.65-6.47-34.33-19-47.26-18.53-.51,4-8.27,28.63-15.82,28.8-7.55-.17-15.31-24.77-15.82-28.8-12.93-.5-43.61,12.06-47.26,18.53-5.14,9.11-19.84,76.1-19.84,76.1H960l14.92-54.58,9.19,54.58h70.36l9.19-54.58,4.94,19.19c6.21,14.31,22.5,27,19.44-4.75C1088,469.75,1084.92,438.36,1082.34,433.79Z"/><path class="cls-5" d="M1023.33,277.56s-23.73-7.67-37.49,5c-34.38,31.67-12.57,69.4-12.57,69.4s10.47-35.4,64.05-43.4l27.47,42.35s31.75-44.35-11-70.88C1053.84,280,1034.86,269.06,1023.33,277.56Z"/><path class="cls-5" d="M1037.81,309.32s-27.51,11.84-39.29,36.52c0,0,9-36.9,45.16-56.71Z"/><path class="cls-8" d="M1032.17,350.81s9.49-11.12,19.37,0C1051.54,350.81,1041.17,344.18,1032.17,350.81Z"/><ellipse class="cls-8" cx="997.71" cy="351.65" rx="4.64" ry="4.83"/><path class="cls-8" d="M1006.66,350.81s-9.49-11.12-19.37,0C987.29,350.81,997.66,344.18,1006.66,350.81Z"/><path class="cls-5" d="M713.46,306.15s-18.13,33.06,2.2,95.74c34.2,8.69,62.27,8.37,96,.17,0,0,22.75-62.33,4.69-102.51C805.68,275.8,713.46,306.15,713.46,306.15Z"/><rect class="cls-6" x="751.53" y="387.02" width="23.38" height="34.97"/><path class="cls-7" d="M817.53,321.79s-10.34,85-55.37,84.29c-38.72-.61-49-72.3-49-72.3C703.07,318.86,799,240.4,817.53,321.79Z"/><path class="cls-6" d="M736.26,419.48,764,410.75l33.21,12.19,9.27,18.79L765.15,468s-23.52-18-24.47-19.3-15.16-17.13-15.16-18.44S736.26,419.48,736.26,419.48Z"/><path class="cls-7" d="M801.14,354.29c-1.57,6.42.73,12.2,5.12,12.91s9.22-3.92,10.78-10.34-.73-12.2-5.12-12.91S802.7,347.87,801.14,354.29Z"/><path class="cls-7" d="M712,359.83c3,5.87,8.56,8.72,12.34,6.37s4.37-9,1.34-14.88-8.56-8.72-12.34-6.37S708.95,354,712,359.83Z"/><path class="cls-8" d="M798.21,342.35c-7.83-2.53-15.23-2.85-22.18-.78l.1-3c6.8-2.26,14.21-1.93,22.18.78Z"/><path class="cls-8" d="M729.81,342.35c7.83-2.53,15.23-2.85,22.18-.78l-.1-3c-6.8-2.26-14.21-1.93-22.18.78Z"/><ellipse class="cls-8" cx="784.99" cy="352.1" rx="4.64" ry="4.38"/><path class="cls-8" d="M760.92,362.36s-10.26,5.93,0,11.39A9,9,0,0,1,760.92,362.36Z"/><path class="cls-8" d="M1014.78,362.36s-10.26,5.93,0,11.39A9,9,0,0,1,1014.78,362.36Z"/><path class="cls-9" d="M826.21,433.79c-3.65-6.47-34.33-19-47.26-18.53-.51,4-8.27,28.63-15.82,28.8-7.55-.17-15.31-24.77-15.82-28.8-12.93-.5-43.61,12.06-47.26,18.53-5.14,9.11-19.84,76.1-19.84,76.1h23.64l14.92-54.58L728,509.89h70.36l9.19-54.58,14.92,54.58h23.64S831.34,442.89,826.21,433.79Z"/><path class="cls-5" d="M767.19,277.56s-23.73-7.67-37.49,5c-34.38,31.67-12.57,69.4-12.57,69.4s10.47-35.4,64.05-43.4l27.47,42.35s31.75-44.35-11-70.88C797.7,280,778.73,269.06,767.19,277.56Z"/><path class="cls-5" d="M781.68,309.32s-27.51,11.84-39.29,36.52c0,0,9-36.9,45.16-56.71Z"/><path class="cls-8" d="M775.3,352.67s9.49-11.12,19.37,0C794.67,352.67,784.31,346,775.3,352.67Z"/><ellipse class="cls-8" cx="741.58" cy="352.13" rx="4.64" ry="4.35"/><path class="cls-8" d="M750.53,352.67s-9.49-11.12-19.37,0C731.16,352.67,741.53,346,750.53,352.67Z"/><path class="cls-5" d="M720.22,608.51s-18.13,33.06,2.2,95.74c34.2,8.69,62.27,8.37,96,.17,0,0,22.75-62.33,4.69-102.51C812.44,578.16,720.22,608.51,720.22,608.51Z"/><rect class="cls-6" x="758.29" y="689.38" width="23.38" height="34.97"/><path class="cls-7" d="M824.29,624.14s-10.34,85-55.37,84.29c-38.72-.61-49-72.3-49-72.3C709.84,621.22,805.75,542.76,824.29,624.14Z"/><path class="cls-6" d="M743,721.83l27.78-8.73L804,725.3l9.27,18.79L771.92,770.4s-23.52-18-24.47-19.3S732.29,734,732.29,732.66,743,721.83,743,721.83Z"/><path class="cls-7" d="M807.9,656.64c-1.57,6.42.73,12.2,5.12,12.91s9.22-3.92,10.78-10.34-.73-12.2-5.12-12.91S809.47,650.22,807.9,656.64Z"/><path class="cls-7" d="M718.75,662.18c3,5.87,8.56,8.72,12.34,6.37s4.37-9,1.34-14.88-8.56-8.72-12.34-6.37S715.71,656.31,718.75,662.18Z"/><path class="cls-8" d="M774.27,685.06a16.19,16.19,0,0,0-10.22-.2c-1.25,0-1.22-1.39,0-1.37,3.12-1.09,6.57-.86,10.22.2C775.42,683.71,775.39,685.08,774.27,685.06Z"/><path class="cls-8" d="M739.83,647.39c6.65-4.83,13.59-7.43,20.84-7.61l-1-2.79c-7.17,0-14.12,2.56-20.84,7.61Z"/><path class="cls-8" d="M799.79,647.53c-6.58-4.93-13.48-7.64-20.73-7.93l1.06-2.77c7.17.07,14.08,2.77,20.73,7.93Z"/><path class="cls-8" d="M787.12,654a4.64,4.64,0,1,0,9.28,0c0-2.67-4.05-2.53-5.64-3.31C788.45,649.55,787.12,651.34,787.12,654Z"/><path class="cls-8" d="M767.69,664.72s-10.26,5.93,0,11.39A9,9,0,0,1,767.69,664.72Z"/><path class="cls-9" d="M833,744.13c-3.65-9.25-34.33-27.23-47.26-26.51-.51,5.77-8.27,41-15.82,41.2-7.55-.25-15.31-35.43-15.82-41.2-12.93-.71-43.61,17.26-47.26,26.51-5.14,13-16.2,85.78-16.2,85.78H715l10.51-55,6.76,55h75.5l6.47-55,10.51,55h24.41S838.11,757.16,833,744.13Z"/><path class="cls-5" d="M774,579.91s-23.73-7.67-37.49,5c-34.38,31.67-12.57,69.4-12.57,69.4s10.47-35.4,64.05-43.4l27.47,42.35s31.75-44.35-11-70.88C804.47,582.39,785.5,571.41,774,579.91Z"/><path class="cls-5" d="M788.44,611.67s-27.51,11.84-39.29,36.52c0,0,9-36.9,45.16-56.71Z"/><path class="cls-5" d="M970.15,608.51s-18.13,33.06,2.2,95.74c34.2,8.69,62.27,8.37,96,.17,0,0,22.75-62.33,4.69-102.51C1062.37,578.16,970.15,608.51,970.15,608.51Z"/><rect class="cls-6" x="1008.22" y="689.38" width="23.38" height="34.97"/><path class="cls-7" d="M1074.22,624.14s-10.34,85-55.37,84.29c-38.72-.61-49-72.3-49-72.3C959.77,621.22,1055.68,542.76,1074.22,624.14Z"/><path class="cls-6" d="M993,721.83l27.78-8.73,33.21,12.19,9.28,18.79-41.37,26.32s-23.52-18-24.47-19.3S982.22,734,982.22,732.66,993,721.83,993,721.83Z"/><path class="cls-7" d="M1057.83,656.64c-1.57,6.42.73,12.2,5.12,12.91s9.22-3.92,10.78-10.34-.73-12.2-5.12-12.91S1059.4,650.22,1057.83,656.64Z"/><path class="cls-7" d="M968.68,662.18c3,5.87,8.56,8.72,12.34,6.37s4.37-9,1.34-14.88S973.79,645,970,647.3,965.64,656.31,968.68,662.18Z"/><path class="cls-8" d="M1054.91,644.71c-7.83-2.53-15.23-2.85-22.18-.78l.1-3c6.8-2.26,14.21-1.93,22.18.78Z"/><path class="cls-8" d="M1020.48,688.3l-3.19-.06c-.39,0-.33-3,.06-3l3.19.06C1020.89,685.34,1020.83,688.3,1020.48,688.3Z"/><path class="cls-8" d="M986.5,644.71c7.83-2.53,15.23-2.85,22.18-.78l-.1-3c-6.8-2.26-14.21-1.93-22.18.78Z"/><path class="cls-8" d="M1017.62,664.72s-10.26,5.93,0,11.39A9,9,0,0,1,1017.62,664.72Z"/><path class="cls-9" d="M1082.9,736.15c-3.65-6.47-34.33-19-47.26-18.53-.51,4-8.27,28.63-15.82,28.8-7.55-.17-15.31-24.77-15.82-28.8-12.93-.5-43.61,12.06-47.26,18.53-5.14,9.11-19.84,76.1-19.84,76.1h23.64l14.92-54.58,9.19,54.58H1055l9.19-54.58,13.49,16.09L1095,770.4S1088,745.25,1082.9,736.15Z"/><path class="cls-5" d="M1023.89,579.91s-23.73-7.67-37.49,5c-34.38,31.67-12.57,69.4-12.57,69.4s10.47-35.4,64.05-43.4l27.47,42.35s31.75-44.35-11-70.88C1054.4,582.39,1035.42,571.41,1023.89,579.91Z"/><path class="cls-5" d="M1038.37,611.67s-27.51,11.84-39.29,36.52c0,0,9-36.9,45.16-56.71Z"/><path class="cls-5" d="M720.22,910.86s-18.13,33.06,2.2,95.74c34.2,8.69,62.27,8.37,96,.17,0,0,22.75-62.33,4.69-102.51C812.44,880.52,720.22,910.86,720.22,910.86Z"/><rect class="cls-6" x="758.29" y="991.73" width="23.38" height="34.97"/><path class="cls-7" d="M824.29,926.5s-10.34,85-55.37,84.29c-38.72-.61-49-72.3-49-72.3C709.84,923.57,805.75,845.11,824.29,926.5Z"/><path class="cls-6" d="M743,1024.19l27.78-8.73L804,1027.65l9.27,18.79-41.37,26.32s-23.52-18-24.47-19.3-15.16-17.13-15.16-18.44S743,1024.19,743,1024.19Z"/><path class="cls-7" d="M807.9,959c-1.57,6.42.73,12.2,5.12,12.91s9.22-3.92,10.78-10.34-.73-12.2-5.12-12.91S809.47,952.58,807.9,959Z"/><path class="cls-7" d="M718.75,964.54c3,5.87,8.56,8.72,12.34,6.37s4.37-9,1.34-14.88-8.56-8.72-12.34-6.37S715.71,958.67,718.75,964.54Z"/><path class="cls-8" d="M805,947.07c-7.83-2.53-15.23-2.85-22.18-.78l.1-3c6.8-2.26,14.21-1.93,22.18.78Z"/><path class="cls-8" d="M736.58,947.07c7.83-2.53,15.23-2.85,22.18-.78l-.1-3c-6.8-2.26-14.21-1.93-22.18.78Z"/><ellipse class="cls-8" cx="791.76" cy="956.36" rx="4.64" ry="4.83"/><path class="cls-8" d="M767.69,967.08s-10.26,5.93,0,11.39A9,9,0,0,1,767.69,967.08Z"/><path class="cls-9" d="M833,1038.5c-3.65-6.47-34.33-19-47.26-18.53-.51,4-8.27,28.63-15.82,28.8-7.55-.17-15.31-24.77-15.82-28.8-12.93-.5-43.61,12.06-47.26,18.53-5.14,9.11-19.84,76.1-19.84,76.1h23.64L725.53,1060l9.19,54.58h70.36l9.19-54.58,14.92,54.58h23.64S838.11,1047.61,833,1038.5Z"/><path class="cls-5" d="M774,882.27s-23.73-7.67-37.49,5c-34.38,31.67-12.57,69.4-12.57,69.4s10.47-35.4,64.05-43.4l27.47,42.35s31.75-44.35-11-70.88C804.47,884.74,785.5,873.77,774,882.27Z"/><path class="cls-5" d="M788.44,914s-27.51,11.84-39.29,36.52c0,0,9-36.9,45.16-56.71Z"/><path class="cls-8" d="M782.8,955.52s9.49-11.12,19.37,0C802.17,955.52,791.81,948.89,782.8,955.52Z"/><ellipse class="cls-8" cx="748.34" cy="956.36" rx="4.64" ry="4.83"/><path class="cls-8" d="M757.3,955.52s-9.49-11.12-19.37,0C737.93,955.52,748.29,948.89,757.3,955.52Z"/><path class="cls-5" d="M970.15,910.86s-18.13,33.06,2.2,95.74c34.2,8.69,62.27,8.37,96,.17,0,0,22.75-62.33,4.69-102.51C1062.37,880.52,970.15,910.86,970.15,910.86Z"/><rect class="cls-6" x="1008.22" y="991.73" width="23.38" height="34.97"/><path class="cls-7" d="M1074.22,926.5s-10.34,85-55.37,84.29c-38.72-.61-49-72.3-49-72.3C959.77,923.57,1055.68,845.11,1074.22,926.5Z"/><path class="cls-6" d="M993,1024.19l27.78-8.73,33.21,12.19,9.28,18.79-41.37,26.32s-23.52-18-24.47-19.3-15.16-17.13-15.16-18.44S993,1024.19,993,1024.19Z"/><path class="cls-7" d="M1057.83,959c-1.57,6.42.73,12.2,5.12,12.91s9.22-3.92,10.78-10.34-.73-12.2-5.12-12.91S1059.4,952.58,1057.83,959Z"/><path class="cls-7" d="M968.68,964.54c3,5.87,8.56,8.72,12.34,6.37s4.37-9,1.34-14.88-8.56-8.72-12.34-6.37S965.64,958.67,968.68,964.54Z"/><path class="cls-8" d="M1054.91,947.07c-7.83-2.53-15.23-2.85-22.18-.78l.1-3c6.8-2.26,14.21-1.93,22.18.78Z"/><path class="cls-8" d="M1026.25,991l-15.45-.3a1.48,1.48,0,0,1,.06-3l15.45.3C1028,988.09,1027.94,991.05,1026.25,991Z"/><path class="cls-8" d="M986.5,947.07c7.83-2.53,15.23-2.85,22.18-.78l-.1-3c-6.8-2.26-14.21-1.93-22.18.78Z"/><ellipse class="cls-8" cx="1044.93" cy="956.66" rx="4.64" ry="4.83"/><path class="cls-8" d="M1017.62,967.08s-10.26,5.93,0,11.39A9,9,0,0,1,1017.62,967.08Z"/><path class="cls-9" d="M1082.9,1038.5c-3.65-6.47-34.33-19-47.26-18.53-.51,4-8.27,28.63-15.82,28.8-7.55-.17-15.31-24.77-15.82-28.8-12.93-.5-43.61,12.06-47.26,18.53-5.14,9.11-19.84,76.1-19.84,76.1h23.64L975.46,1060l9.19,54.58H1055l9.19-54.58,14.92,54.58h23.64S1088,1047.61,1082.9,1038.5Z"/><path class="cls-5" d="M1023.89,882.27s-23.73-7.67-37.49,5c-34.38,31.67-12.57,69.4-12.57,69.4s10.47-35.4,64.05-43.4l27.47,42.35s31.75-44.35-11-70.88C1054.4,884.74,1035.42,873.77,1023.89,882.27Z"/><path class="cls-5" d="M1038.37,914s-27.51,11.84-39.29,36.52c0,0,9-36.9,45.16-56.71Z"/><path class="cls-8" d="M1032.73,955.52s9.49-11.12,19.37,0C1052.1,955.52,1041.73,948.89,1032.73,955.52Z"/><ellipse class="cls-8" cx="1000.52" cy="956.36" rx="4.64" ry="4.83"/><path class="cls-8" d="M1007.22,955.52s-9.49-11.12-19.37,0C987.86,955.52,998.22,948.89,1007.22,955.52Z"/><path class="cls-8" d="M771.4,385.66l-18.85-.36c-2.31,0-2.35-1.76.06-3a22.9,22.9,0,0,1,18.85.36C773.67,384,773.47,385.7,771.4,385.66Z"/><circle class="cls-2" cx="1000.14" cy="350.2" r="0.81"/><circle class="cls-2" cx="1044.12" cy="350.2" r="0.81"/><circle class="cls-2" cx="744.11" cy="350.2" r="0.81"/><circle class="cls-2" cx="788.09" cy="350.2" r="0.81"/><circle class="cls-2" cx="794.57" cy="655.77" r="0.81"/><path class="cls-8" d="M754,653.77a4.64,4.64,0,1,1-9.27.4c-.11-2.66,4-1.64,5.54-2.5C752.52,650.44,753.89,651.11,754,653.77Z"/><circle class="cls-2" cx="752.07" cy="655.62" r="0.81" transform="translate(-27.38 32.8) rotate(-2.45)"/><path class="cls-8" d="M406.27,695.85h-.83a7.79,7.79,0,0,1-7.77-7.77v-2.85c0-4.27,3.52-10.05,7.79-10.05l.81-.57c4.27,0,7.77,5.1,7.77,9.38v4.1A7.79,7.79,0,0,1,406.27,695.85Z"/><ellipse class="cls-12" cx="406.7" cy="762.08" rx="24.68" ry="11.73"/><path class="cls-13" d="M429.14,756.87c0,3.12-9.75,5.65-21.78,5.65s-21.78-2.53-21.78-5.65v-4.44s12.76-1.21,21.78-1.21c8.18,0,21.78.92,21.78.92Z"/><ellipse class="cls-14" cx="407.36" cy="752.43" rx="21.78" ry="5.65"/><polygon class="cls-15" points="407.2 756.55 392.44 751.48 395.07 750.88 409.78 755.92 407.2 756.55"/><polygon class="cls-15" points="413.45 755.27 398.69 750.2 401.32 749.59 416.03 754.63 413.45 755.27"/><polygon class="cls-15" points="419.48 753.72 404.73 748.64 407.36 748.04 422.07 753.08 419.48 753.72"/><path class="cls-16" d="M397.31,745.19l-15.12,6.51-.19,1.05,17.14,8.68s7.5,3.63,8.26,6.64a16.16,16.16,0,0,1,7.29-6.69c4.52-2,16.89-8.32,16.89-8.32l.19-1.05s-13.18-6.2-13.44-6.2S397.31,745.19,397.31,745.19Z"/><path class="cls-17" d="M397.5,744.14l-15.31,7.56,17.14,8.68s7.5,3.63,8.26,6.64a14.27,14.27,0,0,1,7.29-6.69c5.1-1.94,16.89-8.32,16.89-8.32s-12.88-7.25-13.25-7.25S397.5,744.14,397.5,744.14Z"/><path class="cls-12" d="M431.13,744.06c.13,7.24-13.12,11.35-25.18,11.56s-25.46-3.69-25.59-10.93S393.43,728.23,405.5,728,431,736.82,431.13,744.06Z"/><path class="cls-18" d="M424.8,740.35c-1.63,4-10.1,4.18-15.7,1.91S398.56,736,400.19,732s9-4.37,14.58-2.1S426.43,736.34,424.8,740.35Z"/><path class="cls-2" d="M406.28,736.18c-.06,0-.62,1.78.49,1.48S406.28,736.18,406.28,736.18Z"/><path class="cls-2" d="M409.76,736.24c-.05,0-.07,1.88.91,1.29S409.76,736.24,409.76,736.24Z"/><path class="cls-2" d="M408.21,733.13c-.06,0-.28,1.86.77,1.37S408.21,733.13,408.21,733.13Z"/><path class="cls-2" d="M411,733.24c-.05,0-.19,1.87.83,1.34S411,733.24,411,733.24Z"/><path class="cls-2" d="M410.31,729.44c-.06,0-.68,1.76.44,1.5S410.31,729.44,410.31,729.44Z"/><path class="cls-19" d="M420.75,735c-.06,0-.47,1.82.61,1.44S420.75,735,420.75,735Z"/><path class="cls-2" d="M403.1,731c-.05,0-.19,1.87.83,1.34S403.1,731,403.1,731Z"/><path class="cls-2" d="M414,735.62c-.06,0-.73,1.74.4,1.51S414,735.62,414,735.62Z"/><path class="cls-2" d="M417.87,732c-.06,0-.21,1.87.82,1.34S417.87,732,417.87,732Z"/><path class="cls-19" d="M417.79,736.75c-.06,0-.29,1.86.75,1.38S417.79,736.75,417.79,736.75Z"/><path class="cls-2" d="M406.2,730.33c-.06,0-.22,1.87.8,1.35S406.2,730.33,406.2,730.33Z"/><path class="cls-2" d="M413.79,731.76c-.05,0,0,1.88.95,1.26S413.79,731.76,413.79,731.76Z"/><path class="cls-2" d="M404.79,733.72c-.06,0-.54,1.81.56,1.46S404.79,733.72,404.79,733.72Z"/><path class="cls-2" d="M403.81,728.86s0,1.88,1,1.23S403.81,728.86,403.81,728.86Z"/><path class="cls-19" d="M416.55,734.26s0,1.88,1,1.23S416.55,734.26,416.55,734.26Z"/><path class="cls-20" d="M397.67,688.08s7.83-7.42,16.37,0c0,0-.33,7.7-7.77,7.77S397.67,689.9,397.67,688.08Z"/><path class="cls-2" d="M398.51,681.12a14.33,14.33,0,0,1,15.05,0s-1.75-6.27-6.78-6.5C400.35,674.33,398.51,681.12,398.51,681.12Z"/><path class="cls-21" d="M387.82,754.93s.43,3.17,4.37,2.68-.21,1.52,5.43,1.14,4.23,3.75,8.12.88,2.43,4.16,7.66-1.55c0,0,4.08,3.05,7.78-1.45,0,0,4.28,2.73,3.89-1.88L423,752.53s-16.27,6.62-33.46.53Z"/><path class="cls-22" d="M336.58,795.75l28-35.3a7.37,7.37,0,0,1,1.24-2.89l7.12-9.93.09-.11a1.52,1.52,0,0,1,.16-.34l6.13-9.31h0a1.47,1.47,0,0,1,.58-.71l7.77-4.94a1.49,1.49,0,0,1,2,.46l.41.64a1.49,1.49,0,0,1-.46,2L382.43,740l-3,4.57a7.42,7.42,0,0,1,2.21.46l5.2-6.34a1.54,1.54,0,0,1,.89-.53h0l8.57-3.36a1.49,1.49,0,0,1,1.92.84l.28.71a1.49,1.49,0,0,1-.84,1.92l-8.35,3.27L384.84,747l.62.45,3.62-4.42a1.54,1.54,0,0,1,.89-.53h0l8.57-3.36a1.49,1.49,0,0,1,1.92.84l.28.71a1.49,1.49,0,0,1-.84,1.92l-8.35,3.27-3.53,4.3a7.44,7.44,0,0,1,.34.69l1.6-1.76a1.64,1.64,0,0,1,.79-.48,1.47,1.47,0,0,1,.23-.12l8.57-3.36a1.49,1.49,0,0,1,1.92.84l.28.71a1.49,1.49,0,0,1-.84,1.92l-8.49,3.33-3.81,4.18a7.38,7.38,0,0,1-1,2l-7.12,9.93a7.41,7.41,0,0,1-4.58,2.94l-14.71,24.56Z"/><rect class="cls-6" x="366.72" y="743.29" width="18.04" height="27.12" rx="7.45" ry="7.45" transform="translate(511.21 -77.2) rotate(35.63)"/><polygon class="cls-6" points="366.93 755.27 335.58 794.75 360.22 794.58 381.08 759.75 366.93 755.27"/><rect class="cls-6" x="383.59" y="745.78" width="3.74" height="17.92" rx="1.66" ry="1.66" transform="translate(608.9 -62.75) rotate(42.34)"/><path class="cls-6" d="M389.45,750.12l-.28-.71a1.49,1.49,0,0,1,.84-1.92l8.57-3.36a1.49,1.49,0,0,1,1.92.84l.28.71a1.49,1.49,0,0,1-.84,1.92L391.37,751A1.49,1.49,0,0,1,389.45,750.12Z"/><path class="cls-6" d="M389.44,744.11l-.28-.71a1.49,1.49,0,0,1,.84-1.92l8.57-3.36a1.49,1.49,0,0,1,1.92.84l.28.71a1.49,1.49,0,0,1-.84,1.92l-8.57,3.36A1.49,1.49,0,0,1,389.44,744.11Z"/><rect class="cls-6" x="384.13" y="740.38" width="3.74" height="14.25" rx="1.55" ry="1.55" transform="translate(561.76 -75.21) rotate(39.37)"/><path class="cls-6" d="M386.18,739.76l-.28-.71a1.49,1.49,0,0,1,.84-1.92l8.57-3.36a1.49,1.49,0,0,1,1.92.84l.28.71a1.49,1.49,0,0,1-.84,1.92l-8.57,3.36A1.49,1.49,0,0,1,386.18,739.76Z"/><rect class="cls-6" x="381.87" y="736.04" width="3.73" height="14.25" rx="1.55" ry="1.55" transform="translate(558.3 -74.8) rotate(39.36)"/><path class="cls-6" d="M378.87,738.84l-.41-.64a1.49,1.49,0,0,1,.46-2l7.77-4.94a1.48,1.48,0,0,1,2,.46l.41.64a1.49,1.49,0,0,1-.46,2l-7.77,4.94A1.48,1.48,0,0,1,378.87,738.84Z"/><rect class="cls-6" x="374.97" y="735.43" width="3.73" height="14.25" rx="1.55" ry="1.55" transform="translate(470.61 -84.85) rotate(33.37)"/><path class="cls-22" d="M476.4,795.75l-28-35.3a7.37,7.37,0,0,0-1.24-2.89L440,747.63l-.09-.11a1.53,1.53,0,0,0-.16-.34l-6.13-9.31h0a1.47,1.47,0,0,0-.58-.71l-7.77-4.94a1.49,1.49,0,0,0-2,.46l-.41.64a1.49,1.49,0,0,0,.46,2l7.27,4.61,3,4.57a7.42,7.42,0,0,0-2.21.46l-5.2-6.34a1.54,1.54,0,0,0-.89-.53h0l-8.57-3.36a1.49,1.49,0,0,0-1.92.84l-.28.71a1.49,1.49,0,0,0,.84,1.92l8.35,3.27,4.48,5.46-.62.45L423.89,743a1.54,1.54,0,0,0-.89-.53h0l-8.57-3.36a1.49,1.49,0,0,0-1.92.84l-.28.71a1.49,1.49,0,0,0,.84,1.92l8.35,3.27,3.53,4.3a7.44,7.44,0,0,0-.34.69l-1.6-1.76a1.64,1.64,0,0,0-.79-.48,1.47,1.47,0,0,0-.23-.12l-8.57-3.36a1.49,1.49,0,0,0-1.92.84l-.28.71a1.49,1.49,0,0,0,.84,1.92l8.49,3.33,3.81,4.18a7.38,7.38,0,0,0,1,2l7.12,9.93A7.41,7.41,0,0,0,437,771l14.71,24.56Z"/><rect class="cls-6" x="428.22" y="743.29" width="18.04" height="27.12" rx="7.45" ry="7.45" transform="translate(1233.52 1117.34) rotate(144.37)"/><polygon class="cls-6" points="446.05 755.27 477.4 794.75 452.75 794.58 431.9 759.75 446.05 755.27"/><rect class="cls-6" x="425.65" y="745.78" width="3.74" height="17.92" rx="1.66" ry="1.66" transform="translate(1251.86 1024.65) rotate(137.66)"/><path class="cls-6" d="M423.52,750.12l.28-.71a1.49,1.49,0,0,0-.84-1.92l-8.57-3.36a1.49,1.49,0,0,0-1.92.84l-.28.71a1.49,1.49,0,0,0,.84,1.92L421.6,751A1.49,1.49,0,0,0,423.52,750.12Z"/><path class="cls-6" d="M424.54,744.11l.28-.71a1.49,1.49,0,0,0-.84-1.92l-8.57-3.36a1.49,1.49,0,0,0-1.92.84l-.28.71a1.49,1.49,0,0,0,.84,1.92l8.57,3.36A1.49,1.49,0,0,0,424.54,744.11Z"/><rect class="cls-6" x="425.11" y="740.38" width="3.74" height="14.25" rx="1.55" ry="1.55" transform="translate(1231.23 1054.54) rotate(140.63)"/><path class="cls-6" d="M426.8,739.76l.28-.71a1.49,1.49,0,0,0-.84-1.92l-8.57-3.36a1.49,1.49,0,0,0-1.92.84l-.28.71a1.49,1.49,0,0,0,.84,1.92l8.57,3.36A1.49,1.49,0,0,0,426.8,739.76Z"/><rect class="cls-6" x="427.37" y="736.04" width="3.73" height="14.25" rx="1.55" ry="1.55" transform="translate(1232.41 1045.59) rotate(140.64)"/><path class="cls-6" d="M434.1,738.84l.41-.64a1.49,1.49,0,0,0-.46-2l-7.77-4.94a1.48,1.48,0,0,0-2,.46l-.41.64a1.49,1.49,0,0,0,.46,2l7.77,4.94A1.48,1.48,0,0,0,434.1,738.84Z"/><rect class="cls-6" x="434.27" y="735.43" width="3.73" height="14.25" rx="1.55" ry="1.55" transform="translate(1208.83 1122.75) rotate(146.63)"/><path class="cls-6" d="M1082.57,407.48l12.22,66.19c3.46,15.48-21,21.17-23.59,3.9,0-.31-3.29-71.17-3.29-71.17Z"/><ellipse class="cls-8" cx="1019.9" cy="387.97" rx="10.2" ry="5.05"/><path class="cls-23" d="M1013.33,388.41s3.63,6.52,10.69,4.18c10.5-3.48,10.47-5.84,10.47-5.84S1025.18,382.22,1013.33,388.41Z"/><rect class="cls-24" x="1060.38" y="369.93" width="8.31" height="56.41" transform="translate(345.42 1278.26) rotate(-71.25)"/><path class="cls-2" d="M1034.37,384.25l-2.21,6.5a.77.77,0,0,0,.51,1l1.47.5.68.23,1.85.63,2.69-7.92-1.85-.63-.68-.23-1.47-.5A.78.78,0,0,0,1034.37,384.25Z"/><rect class="cls-2" x="1033.44" y="389.1" width="11.01" height="0.9" rx="0.41" ry="0.41" transform="translate(336.17 1248.19) rotate(-71.25)"/><polygon class="cls-2" points="1042.73 402.19 1040.98 394.52 1043.65 386.65 1049.7 381.78 1042.73 402.19"/><path class="cls-25" d="M1083.51,394.92l-.69-3.41-3.88-1.32-2.6,2.29-.69-3.41-3.84-1.3-2.6,2.29-.69-3.41-3.46-1.18-2.6,2.29-.69-3.41-1.38-.47-6.89-2.34a4.77,4.77,0,0,0-6,2.94l-4.86,14.33a4.77,4.77,0,0,0,3,6l6.13,2.08,2.1.71,2.65-2.31.67,3.44,3.42,1.16,2.65-2.31.67,3.44,3.8,1.29,2.65-2.31.67,3.44,3.84,1.3,2.65-2.31.67,3.44,5.42,1.84a4.77,4.77,0,0,0,6-2.94l4.86-14.33a4.77,4.77,0,0,0-3-6l-5.43-1.84Z"/><polygon class="cls-11" points="1056.89 407.26 1060.46 396.74 1058.64 396.11 1055.01 406.63 1056.53 405.28 1056.89 407.26"/><polygon class="cls-11" points="1077.99 414.42 1081.57 403.9 1079.75 403.28 1076.11 413.8 1077.63 412.44 1077.99 414.42"/><polygon class="cls-11" points="1064 386.32 1060.46 396.73 1058.64 396.12 1062.13 385.67 1062.51 387.66 1064 386.32"/><polygon class="cls-11" points="1085.1 393.48 1081.57 403.89 1079.74 403.28 1083.23 392.83 1083.61 394.82 1085.1 393.48"/><path class="cls-6" d="M1065,392.46h0a2.88,2.88,0,0,1-2.27-3.46l2.4-7.48a3.17,3.17,0,0,1,3.94-1.74h0a2.88,2.88,0,0,1,2.27,3.46l-2.4,7.48A3.17,3.17,0,0,1,1065,392.46Z"/><path class="cls-6" d="M1076,396.87h0a2.88,2.88,0,0,1-2.27-3.46l2.77-8.64a3.17,3.17,0,0,1,3.94-1.74h0a2.88,2.88,0,0,1,2.27,3.46l-2.77,8.64A3.17,3.17,0,0,1,1076,396.87Z"/><path class="cls-6" d="M1081.56,398.38h0a2.88,2.88,0,0,1-2.27-3.46l2.4-7.48a3.17,3.17,0,0,1,3.94-1.74h0a2.88,2.88,0,0,1,2.27,3.46l-2.4,7.48A3.17,3.17,0,0,1,1081.56,398.38Z"/><path class="cls-6" d="M1070.34,395.9h0a2.88,2.88,0,0,1-2.27-3.46l3.58-11.16a3.17,3.17,0,0,1,3.94-1.74h0a2.88,2.88,0,0,1,2.27,3.46l-3.58,11.16A3.17,3.17,0,0,1,1070.34,395.9Z"/><ellipse class="cls-6" cx="1062.17" cy="406.68" rx="6.13" ry="5.33" transform="translate(482.16 1385.03) rotate(-80.29)"/><rect class="cls-20" x="762.15" y="383.08" width="9.33" height="7.3" rx="3.61" ry="3.61"/><path class="cls-11" d="M239.07,906a193.09,193.09,0,0,0-29.25-3.46l2,6.62c4.77.27,9.5.73,14.17,1.4,4,.58,8,1.3,11.87,2.14,1.71.37,3.47.74,5.1,1.22,1,.3,2.09,1,2.53.75-1.3,1.13-9.11.8-10.95.84q-7,.17-14.05.17c-8.79,0-17.59-.12-26.37-.31-35.64-.75-71.38-1.31-107-2.5-3.86-.13-8.31-.27-11.72-1.41s-1.82-1.67,1.28-2.33c9-1.9,22.54-2.54,32.08-2.43l3.51-6.42c-10.94-.13-28.68.63-39,2.65-8.34,1.64-15.24,5.92-9.94,10.88,5.1,4.77,16.78,5.38,25.75,5.61,11.36.29,22.72.53,34.08.8,23.81.56,47.62,1.17,71.44,1.66,11.42.24,22.85.39,34.28.22,8.89-.13,22.1.61,27.11-4.5C262.32,911.19,247.43,907.72,239.07,906Z"/><path class="cls-11" d="M235.66,892.29A172.27,172.27,0,0,0,202.21,889a7.49,7.49,0,0,0-3.75.83l5.14,5a156.2,156.2,0,0,1,20.4,1.51c3.6.52,7.14,1.16,10.6,1.91,1.53.33,3.1.66,4.55,1.08.9.26,1.86.89,2.26.67-1.16,1-8.14.71-9.77.75q-6.27.15-12.55.15c-7.85,0-15.7-.11-23.54-.28-31.81-.67-63.71-1.17-95.48-2.23-3.45-.11-7.42-.24-10.46-1.26s-1.62-1.49,1.14-2.08c8-1.7,18.57-2.25,27.08-2.15l5.52-5.67c-9.77-.11-26.44.48-35.68,2.3-7.45,1.46-13.6,5.28-8.87,9.71,4.55,4.26,15,4.8,23,5,10.14.26,20.28.47,30.42.71,21.25.5,42.51,1,63.77,1.48,10.19.21,20.4.35,30.6.2,7.94-.12,19.73.54,24.2-4C256.41,896.9,243.12,893.81,235.66,892.29Z"/><path class="cls-11" d="M58.82,883.28c1.5-.6,3.76,3,3.76,3s3.54-2.33,4.61-1.4-1.69,4.51-1.69,4.51,3.5,2.53,2.75,3.95-4.81-.21-4.81-.21S62.39,897,60.54,897s-1.28-4.64-1.28-4.64-4.55.3-4.55-1.57,4-2.65,4-2.65S57.32,883.88,58.82,883.28Z"/><path class="cls-11" d="M272,894.5c1.16,1.12-1.19,4.66-1.19,4.66s3.58,2.27,3.17,3.63-4.8.31-4.8.31-.87,4.24-2.47,4.13-1.78-4.47-1.78-4.47-3.93.62-4.69-1.07,3.7-3.07,3.7-3.07-2.14-4-.43-4.79,4.07,2.57,4.07,2.57S270.81,893.38,272,894.5Z"/><path class="cls-11" d="M240,928.52c1.59,1.54-1.64,6.41-1.64,6.41s4.91,3.12,4.35,5-6.6.42-6.6.42-1.2,5.82-3.39,5.68-2.44-6.14-2.44-6.14-5.4.85-6.45-1.47,5.09-4.22,5.09-4.22-2.94-5.53-.59-6.59,5.59,3.54,5.59,3.54S238.45,927,240,928.52Z"/><path class="cls-11" d="M88.87,923c1.57.37,1.38,4.61,1.38,4.61s4.24.11,4.58,1.48-4,2.73-4,2.73,1.43,4.08,0,4.81-3.82-2.92-3.82-2.92-3.06,2.55-4.58,1.49,1.6-4.54,1.6-4.54-3.9-2.35-2.83-3.89,4.81.12,4.81.12S87.3,922.61,88.87,923Z"/><path class="cls-11" d="M95.83,868.26c.82-.75,3.17,1,3.17,1s1.73-2.37,2.64-2,0,3.33,0,3.33,2.89.79,2.74,1.89-3.17,1-3.17,1,.25,2.74-.95,3.19-2-2.69-2-2.69-2.87,1.3-3.33.09,2-2.7,2-2.7S95,869,95.83,868.26Z"/><path class="cls-11" d="M202.39,872.94c.27-1.08,3.2-.92,3.2-.92s.11-2.93,1.06-3.16,1.86,2.76,1.86,2.76,2.83-1,3.33,0-2.05,2.62-2.05,2.62,1.74,2.13,1,3.18-3.13-1.14-3.13-1.14S206,879,205,878.25s.12-3.33.12-3.33S202.13,874,202.39,872.94Z"/><path class="cls-11" d="M247.68,884.23c.22-1.09,3.16-1.06,3.16-1.06s0-2.93.91-3.2,2,2.67,2,2.67,2.79-1.09,3.33-.12-1.93,2.72-1.93,2.72,1.84,2.05,1.14,3.13-3.18-1-3.18-1-1.53,2.76-2.62,2.06,0-3.33,0-3.33S247.47,885.32,247.68,884.23Z"/><path class="cls-11" d="M66.05,928.24c.47-1,3.32-.27,3.32-.27s.69-2.85,1.66-2.89,1.28,3.08,1.28,3.08,3-.38,3.26.69S73,931,73,931s1.29,2.44.35,3.31-2.84-1.74-2.84-1.74-2.16,2.3-3,1.36.77-3.24.77-3.24S65.58,929.25,66.05,928.24Z"/><path class="cls-11" d="M251.59,928.24c.47-1,3.32-.27,3.32-.27s.68-2.85,1.66-2.89,1.28,3.08,1.28,3.08,3-.38,3.26.69-2.53,2.17-2.53,2.17,1.29,2.44.35,3.31-2.84-1.74-2.84-1.74-2.16,2.3-3,1.36.77-3.24.77-3.24S251.12,929.25,251.59,928.24Z"/><path class="cls-11" d="M134.54,852.43c2.09.49,1.83,6.14,1.83,6.14s5.64.14,6.1,2-5.28,3.64-5.28,3.64,1.9,5.43,0,6.41-5.09-3.89-5.09-3.89-4.07,3.4-6.09,2,2.13-6,2.13-6-5.2-3.13-3.78-5.18,6.41.15,6.41.15S132.45,851.94,134.54,852.43Z"/><path class="cls-8" d="M417.47,994.91a24.46,24.46,0,0,0-15.1-3.23c-1.85-.4-1.41-2.41.43-2,4.94-.72,10,.62,15.1,3.23C419.56,993.25,419.13,995.26,417.47,994.91Z"/><rect class="cls-8" x="740.39" y="650.85" width="16.22" height="2" transform="translate(-141.56 212.58) rotate(-14.78)"/><rect class="cls-8" x="784.75" y="650.84" width="16.21" height="2" transform="translate(254.47 -222.03) rotate(18.94)"/><rect class="cls-8" x="989.68" y="653.59" width="16.21" height="2" transform="translate(12.17 -18.18) rotate(1.05)"/><rect class="cls-8" x="1033.85" y="653.59" width="16.21" height="2" transform="translate(12.17 -18.99) rotate(1.05)"/><path class="cls-8" d="M1002.13,654.59a5.25,5.25,0,0,1-10.5,0Z"/><path class="cls-8" d="M1047.21,654.59a5.25,5.25,0,0,1-10.5,0Z"/><path class="cls-22" d="M1090.26,740l-17.92-58.68a9,9,0,0,0-.07-2.05v-9.8a1.72,1.72,0,0,0,.28-.44l4.23-10a1.76,1.76,0,0,0-.93-2.3l-.83-.35a1.75,1.75,0,0,0-2.29.93l-.49,1.16a1.81,1.81,0,0,0,0-.41l-1-13.11h0a1.74,1.74,0,0,0-.2-1.07l-5.23-9.52a1.75,1.75,0,0,0-2.37-.69l-.79.43a1.76,1.76,0,0,0-.69,2.38l4.89,8.9.51,6.43a8.74,8.74,0,0,0-2.55-.78l-1.77-9.5a1.81,1.81,0,0,0-.62-1.05l0,0-7-8.34a1.75,1.75,0,0,0-2.47-.22l-.69.58a1.76,1.76,0,0,0-.22,2.46l6.77,8.13,1.53,8.19-.9.11-1.23-6.62a1.81,1.81,0,0,0-.62-1.05l0,0-7-8.34a1.75,1.75,0,0,0-2.47-.22l-.69.58a1.76,1.76,0,0,0-.22,2.46l6.77,8.13,1.2,6.45a8.77,8.77,0,0,0-.74.52l-.66-2.73a1.93,1.93,0,0,0-.54-.94,1.73,1.73,0,0,0-.17-.26l-7-8.34a1.75,1.75,0,0,0-2.47-.22l-.69.58a1.76,1.76,0,0,0-.22,2.46l6.88,8.26,1.56,6.49a8.71,8.71,0,0,0-.09,2.68l1.71,14.31a8.78,8.78,0,0,0,4,6.33c2.67,16.6,10.39,64.49,10.46,64.74C1071.81,763.37,1095.45,754.95,1090.26,740Z"/><path class="cls-8" d="M774.34,989.7l-8.85-.17c-1.08,0-1-3,.06-3l8.85.17C775.36,986.75,775.31,989.72,774.34,989.7Z"/><rect class="cls-2" x="1132.71" y="867.96" width="12.06" height="22.58" rx="3.12" ry="3.12" transform="translate(2277.48 1758.49) rotate(180)"/><rect class="cls-2" x="1110.37" y="887.65" width="34.7" height="4.9" rx="2.45" ry="2.45" transform="translate(2255.44 1780.2) rotate(-180)"/><path class="cls-2" d="M1142.56,889c-2,9.77-2.9,18.56,0,24.22h-21a17.47,17.47,0,0,0-.08-8.36c-.24-4.18-5.67-.82-9.26-12.38l.49-4.3Z"/><circle class="cls-3" cx="1107.41" cy="918.41" r="3.78"/><circle class="cls-3" cx="1099.5" cy="925.12" r="3.78"/><circle class="cls-3" cx="1090.13" cy="930.63" r="3.78"/><path class="cls-6" d="M1071.81,675.59,1091.47,740c5.19,15-18.45,23.41-23,6.55-.08-.3-11.36-70.33-11.36-70.33Z"/><path class="cls-9" d="M1088.8,724.59l9.76,45c-1.75,10.82-15.59,19.48-25.08,0l-9.15-41.88Z"/><path class="cls-6" d="M1063.83,683.12l3.68-.44c4.8-.57,6.55,1.34,6-3.45V658.6a8.81,8.81,0,0,0-9.77-7.68l-3.68.44a8.81,8.81,0,0,0-7.68,9.77l1.71,14.31A8.81,8.81,0,0,0,1063.83,683.12Z"/><rect class="cls-6" x="1052.71" y="648.75" width="4.41" height="21.13" rx="1.96" ry="1.96" transform="translate(2234.88 1053.25) rotate(166.46)"/><path class="cls-6" d="M1053.41,652.27l.69-.58a1.76,1.76,0,0,0,.22-2.46l-7-8.34a1.75,1.75,0,0,0-2.47-.22l-.69.58a1.76,1.76,0,0,0-.22,2.46l7,8.34A1.75,1.75,0,0,0,1053.41,652.27Z"/><path class="cls-6" d="M1057.88,646.63l.69-.58a1.76,1.76,0,0,0,.22-2.46l-7-8.34a1.75,1.75,0,0,0-2.47-.22l-.69.58a1.76,1.76,0,0,0-.22,2.46l7,8.34A1.75,1.75,0,0,0,1057.88,646.63Z"/><rect class="cls-6" x="1056.27" y="643.13" width="4.41" height="16.81" rx="1.83" ry="1.83" transform="translate(2218.48 1097.89) rotate(169.43)"/><path class="cls-6" d="M1062.68,643.42l.69-.58a1.76,1.76,0,0,0,.22-2.46l-7-8.34a1.75,1.75,0,0,0-2.47-.22l-.69.58a1.76,1.76,0,0,0-.22,2.46l7,8.34A1.75,1.75,0,0,0,1062.68,643.42Z"/><rect class="cls-6" x="1061.07" y="639.92" width="4.41" height="16.81" rx="1.83" ry="1.83" transform="translate(2227.41 1090.66) rotate(169.43)"/><path class="cls-6" d="M1070.75,646.62l.79-.43a1.76,1.76,0,0,0,.69-2.38l-5.23-9.52a1.75,1.75,0,0,0-2.37-.69l-.79.43a1.76,1.76,0,0,0-.69,2.38l5.23,9.52A1.75,1.75,0,0,0,1070.75,646.62Z"/><path class="cls-6" d="M1070.64,669.56l.83.35a1.75,1.75,0,0,0,2.29-.93l4.23-10a1.76,1.76,0,0,0-.93-2.3l-.83-.35a1.75,1.75,0,0,0-2.29.93l-4.23,10A1.76,1.76,0,0,0,1070.64,669.56Z"/><rect class="cls-6" x="1068.55" y="643.21" width="4.41" height="16.81" rx="1.83" ry="1.83" transform="translate(2190.02 1215.85) rotate(175.43)"/><circle class="cls-2" cx="794.32" cy="955.52" r="0.81"/><circle class="cls-2" cx="1003.54" cy="955.52" r="0.81"/><circle class="cls-2" cx="1047.58" cy="954.71" r="0.81"/><circle class="cls-2" cx="749.96" cy="955.52" r="0.81"/><polygon class="cls-22" points="1059.49 594.94 1045.75 611.55 1054.62 611.55 1044.25 624.95 1068.96 606.62 1057.75 606.8 1071.1 594.94 1059.49 594.94"/><polygon class="cls-20" points="1061.87 592.83 1048.12 609.43 1057 609.43 1046.62 622.84 1071.33 604.5 1060.12 604.68 1073.47 592.83 1061.87 592.83"/></g><g id="text"><rect class="cls-11" x="54.33" y="481" width="202" height="35.33"/><rect class="cls-11" x="309.8" y="481" width="202" height="35.33"/><rect class="cls-11" x="54.33" y="794.58" width="202" height="35.33"/><rect class="cls-11" x="309.8" y="794.58" width="202" height="35.33"/><rect class="cls-11" x="54.33" y="1090.58" width="202" height="35.33"/><rect class="cls-11" x="44" y="1134.58" width="222" height="35.33"/><rect class="cls-11" x="309.8" y="1090.58" width="202" height="35.33"/><path class="cls-2" d="M65.07,1143.4A8.27,8.27,0,0,1,70.9,1146l-2.44,2.75a4.65,4.65,0,0,0-3.32-1.48c-2.75,0-4.89,2.38-4.89,6.34s1.9,6.4,4.77,6.4a4.82,4.82,0,0,0,3.74-1.75l2.44,2.68a8,8,0,0,1-6.24,2.9c-5.1,0-9.26-3.47-9.26-10.08S60,1143.4,65.07,1143.4Z"/><path class="cls-2" d="M72.07,1153.51c0-6.43,3.65-10.11,8.93-10.11s8.93,3.71,8.93,10.11-3.62,10.29-8.93,10.29S72.07,1159.93,72.07,1153.51Zm13.3,0c0-3.92-1.69-6.27-4.37-6.27s-4.37,2.35-4.37,6.27S78.35,1160,81,1160,85.38,1157.46,85.38,1153.51Z"/><path class="cls-2" d="M92.67,1153.51c0-6.43,3.65-10.11,8.93-10.11s8.93,3.71,8.93,10.11-3.62,10.29-8.93,10.29S92.67,1159.93,92.67,1153.51Zm13.3,0c0-3.92-1.69-6.27-4.37-6.27s-4.37,2.35-4.37,6.27,1.72,6.46,4.37,6.46S106,1157.46,106,1153.51Z"/><path class="cls-2" d="M124.86,1163.43l-3.77-7.09h-2.41v7.09h-4.46v-19.67h7.09c4.16,0,7.6,1.45,7.6,6.12a5.79,5.79,0,0,1-3.5,5.67l4.43,7.87Zm-6.18-10.62h2.26c2.32,0,3.59-1,3.59-2.93s-1.27-2.59-3.59-2.59h-2.26Z"/><path class="cls-2" d="M132.77,1143.76h5.55c6,0,9.89,3,9.89,9.74s-3.86,9.92-9.62,9.92h-5.82Zm5.31,16.08c3.32,0,5.58-1.63,5.58-6.33s-2.26-6.15-5.58-6.15h-.84v12.49Z"/><path class="cls-2" d="M151.89,1143.76h4.46v19.67h-4.46Z"/><path class="cls-2" d="M160.94,1143.76h4.56l5.13,9.77,2,4.34h.12c-.21-2.08-.57-4.86-.57-7.18v-6.94h4.22v19.67H171.8l-5.13-9.8-1.93-4.28h-.12c.21,2.17.57,4.8.57,7.12v7h-4.25Z"/><path class="cls-2" d="M190.23,1158.75h-6l-1.21,4.68h-4.52l6.18-19.67H190l6.18,19.67h-4.71Zm-.9-3.47-.48-1.81c-.54-2-1.06-4.28-1.6-6.34h-.12c-.45,2.08-1,4.37-1.54,6.34l-.48,1.81Z"/><path class="cls-2" d="M200.85,1147.5h-5.43v-3.74h15.26v3.74h-5.4v15.93h-4.43Z"/><path class="cls-2" d="M213.73,1143.76h4.46v19.67h-4.46Z"/><path class="cls-2" d="M221.84,1153.51c0-6.43,3.65-10.11,8.93-10.11s8.93,3.71,8.93,10.11-3.62,10.29-8.93,10.29S221.84,1159.93,221.84,1153.51Zm13.3,0c0-3.92-1.69-6.27-4.37-6.27s-4.37,2.35-4.37,6.27,1.72,6.46,4.37,6.46S235.15,1157.46,235.15,1153.51Z"/><path class="cls-2" d="M243.38,1143.76h4.56l5.13,9.77,2,4.34h.12c-.21-2.08-.57-4.86-.57-7.18v-6.94h4.22v19.67h-4.56l-5.13-9.8-1.93-4.28h-.12c.21,2.17.57,4.8.57,7.12v7h-4.25Z"/><rect class="cls-20" x="667.45" y="481" width="202" height="35.33"/><rect class="cls-20" x="922.92" y="481" width="202" height="35.33"/><rect class="cls-20" x="912" y="526" width="224.67" height="35.33"/><rect class="cls-20" x="667.45" y="794.58" width="202" height="35.33"/><rect class="cls-20" x="922.92" y="794.58" width="202" height="35.33"/><rect class="cls-20" x="667.45" y="1090.58" width="202" height="35.33"/><rect class="cls-20" x="657.12" y="1134.58" width="222" height="35.33"/><rect class="cls-20" x="912.92" y="1134.58" width="222" height="35.33"/><rect class="cls-20" x="922.92" y="1090.58" width="202" height="35.33"/><path class="cls-2" d="M725.35,1143.76h4.71l2.38,9.17c.57,2.14,1,4.13,1.57,6.3h.12c.6-2.17,1-4.16,1.57-6.3l2.32-9.17h4.56l-5.94,19.67h-5.34Z"/><path class="cls-2" d="M744.62,1143.76h4.46v19.67h-4.46Z"/><path class="cls-2" d="M755,1157.91a7.83,7.83,0,0,0,4.83,2.05c1.84,0,2.75-.72,2.75-1.9s-1.12-1.63-2.84-2.35l-2.53-1.09a5.72,5.72,0,0,1-4-5.37c0-3.26,2.93-5.85,7-5.85a9.1,9.1,0,0,1,6.33,2.59l-2.23,2.81a6.45,6.45,0,0,0-4.1-1.57c-1.51,0-2.5.66-2.5,1.78s1.3,1.63,3,2.32l2.5,1c2.38,1,3.89,2.56,3.89,5.34,0,3.26-2.71,6.09-7.39,6.09a10.9,10.9,0,0,1-7.3-2.84Z"/><path class="cls-2" d="M770.38,1143.76h4.46v19.67h-4.46Z"/><path class="cls-2" d="M778.5,1153.51c0-6.43,3.65-10.11,8.93-10.11s8.93,3.71,8.93,10.11-3.62,10.29-8.93,10.29S778.5,1159.93,778.5,1153.51Zm13.3,0c0-3.92-1.69-6.27-4.37-6.27s-4.37,2.35-4.37,6.27,1.72,6.46,4.37,6.46S791.8,1157.46,791.8,1153.51Z"/><path class="cls-2" d="M800,1143.76h4.55l5.13,9.77,2,4.34h.12c-.21-2.08-.57-4.86-.57-7.18v-6.94h4.22v19.67H810.9l-5.13-9.8-1.93-4.28h-.12c.21,2.17.57,4.8.57,7.12v7H800Z"/><rect class="cls-11" width="596.5" height="234.11"/><rect class="cls-20" x="602.75" width="596.5" height="234.11"/><rect class="cls-3" x="596.5" width="7" height="1200"/><path class="cls-2" d="M38.85,86.08H50V105H67V86.08h11.1V135.3H67V114.77H50V135.3H38.85Z"/><path class="cls-2" d="M98,117.79l-14.8-31.7H95.09l4.45,11.32c1.28,3.7,2.57,7.1,4,10.87h.3c1.36-3.77,2.79-7.17,4.15-10.87l4.38-11.32H124l-14.87,31.7V135.3H98Z"/><path class="cls-2" d="M129.13,86.08h18c10.72,0,19.25,3.93,19.25,15.85,0,11.55-8.83,16.68-19.25,16.68H140.3V135.3H129.13Zm17.29,23.7c6.11,0,9.06-2.72,9.06-7.85s-3.17-7-9.06-7H140.3v14.87Z"/><path class="cls-2" d="M172.45,110.46c0-16.08,9.13-25.29,22.34-25.29s22.34,9.28,22.34,25.29-9.06,25.74-22.34,25.74S172.45,126.54,172.45,110.46Zm33.29,0c0-9.81-4.23-15.7-10.95-15.7s-10.95,5.89-10.95,15.7,4.3,16.15,10.95,16.15S205.74,120.35,205.74,110.46Z"/><path class="cls-2" d="M247.18,84.88A19.25,19.25,0,0,1,261.37,91l-3.62,4a13.48,13.48,0,0,0-10.49-4.6c-10,0-16.46,7.7-16.46,20,0,12.45,5.89,20.31,16.46,20.31,3.55,0,7-1.13,9-2.94V114.84H245.75v-5.21H262v20.83a22.25,22.25,0,0,1-15.4,5.74c-13,0-22.27-9.51-22.27-25.67C224.31,94.61,233.9,84.88,247.18,84.88Z"/><path class="cls-2" d="M273.37,85.78h6.34v44.16H301.3v5.36H273.37Z"/><path class="cls-2" d="M312,116.13,297.07,85.78h6.79l6.34,14c1.58,3.62,3.09,7.1,4.83,10.79h.3c1.66-3.7,3.4-7.17,4.91-10.79l6.42-14h6.49l-14.87,30.34V135.3H312Z"/><path class="cls-2" d="M357.69,84.88A18.29,18.29,0,0,1,371.2,91l-3.55,4a13.23,13.23,0,0,0-9.89-4.6c-9.44,0-15.7,7.7-15.7,20,0,12.45,6,20.31,15.4,20.31,4.68,0,8.15-2,11.32-5.51l3.55,3.85a19,19,0,0,1-15,7.17c-12.46,0-21.74-9.51-21.74-25.67C335.57,94.61,345,84.88,357.69,84.88Z"/><path class="cls-2" d="M381.16,85.78h28.53v5.28H387.5v15.55h18.72V112H387.5v18h22.95v5.36H381.16Z"/><path class="cls-2" d="M420.56,85.78H428l9.59,26.57,3.55,10.12h.3l3.47-10.12,9.51-26.57h7.4V135.3h-6V108c0-4.38.53-10.27.83-14.64h-.3l-3.93,11L443,130.32h-3.62l-9.51-25.89-3.93-11h-.3c.3,4.38.75,10.27.75,14.64V135.3h-5.81Z"/><path class="cls-2" d="M475.06,85.78h6.34V135.3h-6.34Z"/><path class="cls-2" d="M517.18,120.2h-18l-4.76,15.1H488l16.76-49.52h7.1l16.76,49.52h-6.64Zm-1.59-5.06-2.34-7.55c-1.74-5.51-3.32-10.95-4.91-16.68H508c-1.59,5.74-3.17,11.17-4.91,16.68l-2.42,7.55Z"/><path class="cls-2" d="M43,189.23A14.17,14.17,0,0,0,53,193.78c4.78,0,7.61-2.39,7.61-5.94,0-3.72-2.67-4.89-6.11-6.44l-5.22-2.28c-3.39-1.44-7.39-4.06-7.39-9.39,0-5.56,4.89-9.67,11.5-9.67a14.89,14.89,0,0,1,10.72,4.5l-2.44,3a11.72,11.72,0,0,0-8.28-3.44c-4.11,0-6.83,2.06-6.83,5.33,0,3.5,3.22,4.83,6.06,6.06l5.22,2.22c4.22,1.83,7.5,4.33,7.5,9.72,0,5.78-4.78,10.39-12.44,10.39a17.55,17.55,0,0,1-12.72-5.39Z"/><path class="cls-2" d="M77.81,183.06l-11-22.33h5L76.48,171c1.17,2.67,2.28,5.22,3.56,7.94h.22c1.22-2.72,2.5-5.28,3.61-7.94l4.72-10.28h4.78L82.42,183.06v14.11H77.81Z"/><path class="cls-2" d="M98,160.72h5.5l7.06,19.56,2.61,7.44h.22l2.56-7.44,7-19.56h5.44v36.45H124V177.11c0-3.22.39-7.56.61-10.78h-.22l-2.89,8.11-7,19.06h-2.67l-7-19.06L102,166.34h-.22c.22,3.22.56,7.56.56,10.78v20.06H98Z"/><path class="cls-2" d="M138.15,160.72h11.22c8.06,0,13.44,2.72,13.44,10.72,0,7.67-5.5,11.28-13.44,11.28h-6.56v14.44h-4.67Zm10.61,18.22c6.39,0,9.44-2.33,9.44-7.5s-3.17-7-9.44-7h-5.94v14.5Z"/><path class="cls-2" d="M176.15,164.61H165.09v-3.89h26.72v3.89H180.76v32.56h-4.61Z"/><path class="cls-2" d="M194.59,178.78c0-11.67,6.44-18.72,15.61-18.72s15.56,7.11,15.56,18.72-6.44,19.06-15.56,19.06S194.59,190.5,194.59,178.78Zm26.39,0c0-9.06-4.28-14.67-10.78-14.67s-10.83,5.61-10.83,14.67,4.28,15,10.83,15S221,187.89,221,178.78Z"/><path class="cls-2" d="M233.32,160.72h5.5l7.06,19.56,2.61,7.44h.22l2.56-7.44,7-19.56h5.44v36.45h-4.39V177.11c0-3.22.39-7.56.61-10.78h-.22l-2.89,8.11-7,19.06h-2.67l-7-19.06-2.89-8.11H237c.22,3.22.56,7.56.56,10.78v20.06h-4.28Z"/><path class="cls-2" d="M273.6,189.23a14.17,14.17,0,0,0,10.06,4.56c4.78,0,7.61-2.39,7.61-5.94,0-3.72-2.67-4.89-6.11-6.44l-5.22-2.28c-3.39-1.44-7.39-4.06-7.39-9.39,0-5.56,4.89-9.67,11.5-9.67a14.89,14.89,0,0,1,10.72,4.5l-2.44,3a11.72,11.72,0,0,0-8.28-3.44c-4.11,0-6.83,2.06-6.83,5.33,0,3.5,3.22,4.83,6.06,6.06l5.22,2.22c4.22,1.83,7.5,4.33,7.5,9.72,0,5.78-4.78,10.39-12.44,10.39a17.55,17.55,0,0,1-12.72-5.39Z"/><path class="cls-2" d="M630.85,86.08H642V105h17V86.08h11.1V135.3H659V114.77H642V135.3H630.85Z"/><path class="cls-2" d="M690,117.79l-14.8-31.7h11.85l4.45,11.32c1.28,3.7,2.57,7.1,4,10.87h.3c1.36-3.77,2.79-7.17,4.15-10.87l4.38-11.32H716l-14.87,31.7V135.3H690Z"/><path class="cls-2" d="M721.13,86.08h18c10.72,0,19.25,3.93,19.25,15.85,0,11.55-8.83,16.68-19.25,16.68H732.3V135.3H721.13Zm17.29,23.7c6.11,0,9.06-2.72,9.06-7.85s-3.17-7-9.06-7H732.3v14.87Z"/><path class="cls-2" d="M766.79,86.08h30.87v9.36H778v9.89h16.76v9.28H778v11.32h20.46v9.36H766.79Z"/><path class="cls-2" d="M834.65,135.3l-9.44-17.74h-6V135.3H808V86.08h17.74c10.42,0,19,3.62,19,15.32,0,7.25-3.55,11.85-8.76,14.19l11.1,19.7Zm-15.47-26.57h5.66c5.81,0,9-2.49,9-7.32s-3.17-6.49-9-6.49h-5.66Z"/><path class="cls-2" d="M875.26,84.88A19.25,19.25,0,0,1,889.45,91l-3.62,4a13.48,13.48,0,0,0-10.49-4.6c-10,0-16.46,7.7-16.46,20,0,12.45,5.89,20.31,16.46,20.31,3.55,0,7-1.13,9-2.94V114.84H873.83v-5.21h16.23v20.83a22.25,22.25,0,0,1-15.4,5.74c-13,0-22.27-9.51-22.27-25.67C852.39,94.61,862,84.88,875.26,84.88Z"/><path class="cls-2" d="M901.45,85.78h6.34v44.16h21.59v5.36H901.45Z"/><path class="cls-2" d="M940.1,116.13,925.15,85.78h6.79l6.34,14c1.58,3.62,3.09,7.1,4.83,10.79h.3c1.66-3.7,3.4-7.17,4.91-10.79l6.42-14h6.49l-14.87,30.34V135.3H940.1Z"/><path class="cls-2" d="M985.77,84.88A18.29,18.29,0,0,1,999.28,91l-3.55,4a13.23,13.23,0,0,0-9.89-4.6c-9.44,0-15.7,7.7-15.7,20,0,12.45,6,20.31,15.4,20.31,4.68,0,8.15-2,11.32-5.51l3.55,3.85a19,19,0,0,1-15,7.17c-12.46,0-21.74-9.51-21.74-25.67C963.65,94.61,973.08,84.88,985.77,84.88Z"/><path class="cls-2" d="M1009.24,85.78h28.53v5.28h-22.19v15.55h18.72V112h-18.72v18h22.95v5.36h-29.29Z"/><path class="cls-2" d="M1048.64,85.78h7.47l9.59,26.57,3.55,10.12h.3l3.47-10.12,9.51-26.57h7.4V135.3h-6V108c0-4.38.53-10.27.83-14.64h-.3l-3.92,11-9.51,25.89h-3.62l-9.51-25.89-3.93-11h-.3c.3,4.38.75,10.27.75,14.64V135.3h-5.81Z"/><path class="cls-2" d="M1103.14,85.78h6.34V135.3h-6.34Z"/><path class="cls-2" d="M1145.26,120.2h-18l-4.76,15.1H1116l16.76-49.52h7.1l16.76,49.52H1150Zm-1.59-5.06-2.34-7.55c-1.74-5.51-3.32-10.95-4.91-16.68h-.3c-1.59,5.74-3.17,11.17-4.91,16.68l-2.42,7.55Z"/><path class="cls-2" d="M635,189.23A14.17,14.17,0,0,0,645,193.78c4.78,0,7.61-2.39,7.61-5.94,0-3.72-2.67-4.89-6.11-6.44l-5.22-2.28c-3.39-1.44-7.39-4.06-7.39-9.39,0-5.56,4.89-9.67,11.5-9.67a14.9,14.9,0,0,1,10.72,4.5l-2.44,3a11.72,11.72,0,0,0-8.28-3.44c-4.11,0-6.83,2.06-6.83,5.33,0,3.5,3.22,4.83,6.06,6.06l5.22,2.22c4.22,1.83,7.5,4.33,7.5,9.72,0,5.78-4.78,10.39-12.44,10.39a17.55,17.55,0,0,1-12.72-5.39Z"/><path class="cls-2" d="M669.81,183.06l-11-22.33h5L668.48,171c1.17,2.67,2.28,5.22,3.56,7.94h.22c1.22-2.72,2.5-5.28,3.61-7.94l4.72-10.28h4.78l-10.94,22.33v14.11h-4.61Z"/><path class="cls-2" d="M690,160.72h5.5l7.06,19.56,2.61,7.44h.22l2.56-7.44,7-19.56h5.44v36.45H716V177.11c0-3.22.39-7.56.61-10.78h-.22l-2.89,8.11-7,19.06h-2.67l-7-19.06L694,166.34h-.22c.22,3.22.56,7.56.56,10.78v20.06H690Z"/><path class="cls-2" d="M730.15,160.72h11.22c8.06,0,13.45,2.72,13.45,10.72,0,7.67-5.5,11.28-13.45,11.28h-6.56v14.44h-4.67Zm10.61,18.22c6.39,0,9.45-2.33,9.45-7.5s-3.17-7-9.45-7h-5.94v14.5Z"/><path class="cls-2" d="M768.15,164.61H757.09v-3.89h26.72v3.89H772.76v32.56h-4.61Z"/><path class="cls-2" d="M786.59,178.78c0-11.67,6.44-18.72,15.61-18.72s15.56,7.11,15.56,18.72-6.45,19.06-15.56,19.06S786.59,190.5,786.59,178.78Zm26.39,0c0-9.06-4.28-14.67-10.78-14.67s-10.83,5.61-10.83,14.67,4.28,15,10.83,15S813,187.89,813,178.78Z"/><path class="cls-2" d="M825.32,160.72h5.5l7.06,19.56,2.61,7.44h.22l2.56-7.44,7-19.56h5.44v36.45h-4.39V177.11c0-3.22.39-7.56.61-10.78h-.22l-2.89,8.11-7,19.06h-2.67l-7-19.06-2.89-8.11H829c.22,3.22.56,7.56.56,10.78v20.06h-4.28Z"/><path class="cls-2" d="M865.6,189.23a14.17,14.17,0,0,0,10.06,4.56c4.78,0,7.61-2.39,7.61-5.94,0-3.72-2.67-4.89-6.11-6.44l-5.22-2.28c-3.39-1.44-7.39-4.06-7.39-9.39,0-5.56,4.89-9.67,11.5-9.67a14.89,14.89,0,0,1,10.72,4.5l-2.44,3a11.72,11.72,0,0,0-8.28-3.44c-4.11,0-6.83,2.06-6.83,5.33,0,3.5,3.22,4.83,6.06,6.06l5.22,2.22c4.22,1.83,7.5,4.33,7.5,9.72,0,5.78-4.78,10.39-12.45,10.39a17.55,17.55,0,0,1-12.72-5.39Z"/><path class="cls-2" d="M90.75,504.37a7.83,7.83,0,0,0,4.83,2.05c1.84,0,2.75-.72,2.75-1.9s-1.12-1.63-2.84-2.35l-2.53-1.09a5.72,5.72,0,0,1-4-5.37c0-3.26,2.93-5.85,7-5.85a9.11,9.11,0,0,1,6.33,2.59l-2.23,2.81a6.45,6.45,0,0,0-4.1-1.57c-1.51,0-2.5.66-2.5,1.78s1.3,1.63,3,2.32l2.5,1c2.38,1,3.89,2.56,3.89,5.34,0,3.26-2.71,6.09-7.39,6.09a10.9,10.9,0,0,1-7.3-2.84Z"/><path class="cls-2" d="M104.26,490.22h4.56l1.36,9.2c.27,2.05.54,4.13.81,6.21h.12c.36-2.08.75-4.16,1.15-6.21l2.11-9.2h3.77l2.14,9.2c.39,2,.78,4.1,1.18,6.21h.12c.24-2.11.51-4.19.78-6.21l1.36-9.2H128l-3.5,19.67h-5.58L117,501c-.3-1.51-.57-3.11-.78-4.56h-.12c-.24,1.45-.48,3-.78,4.56l-1.87,8.93h-5.49Z"/><path class="cls-2" d="M130.65,490.22H143V494h-7.87v4h6.7v3.71h-6.7v4.52h8.18v3.74H130.65Z"/><path class="cls-2" d="M156.39,505.21h-6l-1.21,4.68h-4.52l6.18-19.67h5.31l6.18,19.67h-4.71Zm-.9-3.47-.48-1.81c-.54-2-1.06-4.28-1.6-6.33h-.12c-.45,2.08-1,4.37-1.54,6.33l-.48,1.81Z"/><path class="cls-2" d="M167,494h-5.43v-3.74h15.26V494h-5.4v15.93H167Z"/><path class="cls-2" d="M179.88,490.22h4.46v19.67h-4.46Z"/><path class="cls-2" d="M188.93,490.22h4.56l5.13,9.77,2,4.34h.12c-.21-2.08-.57-4.86-.57-7.18v-6.94h4.22v19.67h-4.56l-5.13-9.8-1.93-4.28h-.12c.21,2.17.57,4.8.57,7.12v7h-4.25Z"/><path class="cls-2" d="M217.71,489.86a8.51,8.51,0,0,1,6.12,2.56l-2.44,2.75a4.82,4.82,0,0,0-3.62-1.48c-3,0-5.19,2.38-5.19,6.34s1.84,6.39,5.55,6.39a3.47,3.47,0,0,0,2.08-.6v-3.38H217v-3.62h7.21v9.05a10.42,10.42,0,0,1-6.61,2.38c-5.31,0-9.53-3.47-9.53-10.08S212.37,489.86,217.71,489.86Z"/><path class="cls-2" d="M358.28,490.22h7.18c4.28,0,7.69,1.57,7.69,6.33,0,4.62-3.53,6.67-7.69,6.67h-2.71v6.67h-4.46Zm6.91,9.47c2.44,0,3.62-1.09,3.62-3.14s-1.27-2.81-3.62-2.81h-2.44v5.94Z"/><path class="cls-2" d="M384.28,505.21h-6L377,509.89h-4.52l6.18-19.67H384l6.18,19.67h-4.71Zm-.9-3.47-.48-1.81c-.54-2-1.06-4.28-1.6-6.33h-.12c-.45,2.08-1,4.37-1.54,6.33l-.48,1.81Z"/><path class="cls-2" d="M392.25,490.22h4.46v15.93h7.75v3.74H392.25Z"/><path class="cls-2" d="M407.81,490.22h4.46v15.93H420v3.74H407.81Z"/><path class="cls-2" d="M421.36,500c0-6.43,3.65-10.11,8.93-10.11s8.93,3.71,8.93,10.11-3.62,10.29-8.93,10.29S421.36,506.39,421.36,500Zm13.3,0c0-3.92-1.69-6.27-4.37-6.27s-4.37,2.35-4.37,6.27,1.72,6.46,4.37,6.46S434.66,503.92,434.66,500Z"/><path class="cls-2" d="M453.54,509.89l-3.77-7.09h-2.41v7.09h-4.46V490.22H450c4.16,0,7.6,1.45,7.6,6.12a5.79,5.79,0,0,1-3.5,5.67l4.43,7.87Zm-6.18-10.62h2.26c2.32,0,3.59-1,3.59-2.93s-1.27-2.59-3.59-2.59h-2.26Z"/><path class="cls-2" d="M72.78,803.8h4.46v19.67H72.78Z"/><path class="cls-2" d="M92.48,823.47l-3.77-7.09H86.3v7.09H81.83V803.8h7.09c4.16,0,7.6,1.45,7.6,6.12a5.79,5.79,0,0,1-3.5,5.67l4.43,7.87ZM86.3,812.85h2.26c2.32,0,3.59-1,3.59-2.93s-1.27-2.59-3.59-2.59H86.3Z"/><path class="cls-2" d="M111,823.47l-3.77-7.09h-2.41v7.09h-4.46V803.8h7.09c4.16,0,7.6,1.45,7.6,6.12a5.79,5.79,0,0,1-3.5,5.67l4.43,7.87Zm-6.18-10.62h2.26c2.32,0,3.59-1,3.59-2.93s-1.27-2.59-3.59-2.59h-2.26Z"/><path class="cls-2" d="M118.94,803.8h4.46v19.67h-4.46Z"/><path class="cls-2" d="M131.85,807.54h-5.43V803.8h15.26v3.74h-5.4v15.93h-4.43Z"/><path class="cls-2" d="M152.78,818.79h-6l-1.21,4.68H141l6.18-19.67h5.31l6.18,19.67H154Zm-.9-3.47-.48-1.81c-.54-2-1.06-4.28-1.6-6.33h-.12c-.45,2.08-1,4.37-1.54,6.33l-.48,1.81Z"/><path class="cls-2" d="M160.74,803.8h6.73c4.1,0,7.27,1.12,7.27,4.89a4.32,4.32,0,0,1-3.32,4.25v.12c2.81.51,4.28,2,4.28,4.62,0,4-3.38,5.79-7.66,5.79h-7.3Zm6.52,7.93c2.17,0,3.14-.93,3.14-2.41s-1-2.08-3.08-2.08h-2.11v4.49Zm.42,8.3c2.41,0,3.68-.91,3.68-2.68s-1.24-2.47-3.68-2.47h-2.47V820Z"/><path class="cls-2" d="M179,803.8h4.46v19.67H179Z"/><path class="cls-2" d="M188,803.8h4.46v15.93h7.75v3.74H188Z"/><path class="cls-2" d="M203.58,803.8H208v19.67h-4.46Z"/><path class="cls-2" d="M216.49,807.54h-5.43V803.8h15.26v3.74h-5.4v15.93h-4.43Z"/><path class="cls-2" d="M232.21,816.47l-5.91-12.67H231l1.78,4.53c.51,1.48,1,2.84,1.6,4.34h.12c.54-1.51,1.12-2.87,1.66-4.34l1.75-4.53h4.65l-5.94,12.67v7h-4.43Z"/><path class="cls-2" d="M353.58,803.8H358v7.57h6.79V803.8h4.43v19.67h-4.43v-8.21H358v8.21h-4.46Z"/><path class="cls-2" d="M373.76,803.8h4.43v11c0,3.86,1.21,5.19,3.41,5.19s3.5-1.33,3.5-5.19v-11h4.28v10.56c0,6.61-2.69,9.47-7.78,9.47s-7.84-2.87-7.84-9.47Z"/><path class="cls-2" d="M393.85,803.8h4.56l5.13,9.77,2,4.34h.12c-.21-2.08-.57-4.86-.57-7.18V803.8h4.22v19.67h-4.56l-5.13-9.8-1.93-4.28h-.12c.21,2.17.57,4.8.57,7.12v7h-4.25Z"/><path class="cls-2" d="M422.63,803.44a8.51,8.51,0,0,1,6.12,2.56l-2.44,2.75a4.82,4.82,0,0,0-3.62-1.48c-3,0-5.19,2.38-5.19,6.34s1.84,6.39,5.55,6.39a3.48,3.48,0,0,0,2.08-.6V816h-3.26V812.4h7.21v9a10.41,10.41,0,0,1-6.61,2.38c-5.31,0-9.53-3.47-9.53-10.08S417.29,803.44,422.63,803.44Z"/><path class="cls-2" d="M433.06,803.8H445.4v3.74h-7.87v4h6.7v3.71h-6.7v4.52h8.18v3.74H433.06Z"/><path class="cls-2" d="M460.18,823.47l-3.77-7.09H454v7.09h-4.46V803.8h7.09c4.16,0,7.6,1.45,7.6,6.12a5.79,5.79,0,0,1-3.5,5.67l4.43,7.87ZM454,812.85h2.26c2.32,0,3.59-1,3.59-2.93s-1.27-2.59-3.59-2.59H454Z"/><path class="cls-2" d="M101.95,1099.8h4.46v15.93h7.75v3.74H101.95Z"/><path class="cls-2" d="M126.6,1114.79h-6l-1.21,4.68h-4.52L121,1099.8h5.31l6.18,19.67H127.8Zm-.9-3.47-.48-1.81c-.54-2-1.06-4.28-1.6-6.34h-.12c-.45,2.08-1,4.37-1.54,6.34l-.48,1.81Z"/><path class="cls-2" d="M142.7,1099.44a8.27,8.27,0,0,1,5.82,2.56l-2.44,2.75a4.64,4.64,0,0,0-3.32-1.48c-2.75,0-4.89,2.38-4.89,6.34s1.9,6.39,4.77,6.39a4.82,4.82,0,0,0,3.74-1.75l2.44,2.68a8,8,0,0,1-6.24,2.9c-5.1,0-9.26-3.47-9.26-10.08S137.64,1099.44,142.7,1099.44Z"/><path class="cls-2" d="M151.75,1099.8h4.46v8.05h.09l5.88-8.05H167l-5.94,7.84,7.06,11.83h-4.89l-4.77-8.3-2.29,3v5.28h-4.46Z"/><path class="cls-2" d="M175.58,1109.54c0-6.43,3.65-10.11,8.93-10.11s8.93,3.71,8.93,10.11-3.62,10.29-8.93,10.29S175.58,1116,175.58,1109.54Zm13.3,0c0-3.92-1.69-6.28-4.37-6.28s-4.37,2.35-4.37,6.28,1.72,6.46,4.37,6.46S188.89,1113.5,188.89,1109.54Z"/><path class="cls-2" d="M197.12,1099.8h12.43v3.74h-8v4.56h6.79v3.74h-6.79v7.63h-4.46Z"/><path class="cls-2" d="M330.21,1113.95A7.83,7.83,0,0,0,335,1116c1.84,0,2.75-.72,2.75-1.9s-1.12-1.63-2.84-2.35l-2.53-1.09a5.72,5.72,0,0,1-4-5.37c0-3.26,2.93-5.85,7-5.85a9.11,9.11,0,0,1,6.33,2.59l-2.23,2.81a6.45,6.45,0,0,0-4.1-1.57c-1.51,0-2.5.66-2.5,1.78s1.3,1.63,3,2.32l2.5,1c2.38,1,3.89,2.56,3.89,5.34,0,3.26-2.71,6.09-7.39,6.09a10.9,10.9,0,0,1-7.3-2.83Z"/><path class="cls-2" d="M345.62,1099.8h4.46v15.93h7.75v3.74H345.62Z"/><path class="cls-2" d="M361.19,1099.8h12.34v3.74h-7.87v4h6.7v3.71h-6.7v4.52h8.18v3.74H361.19Z"/><path class="cls-2" d="M377.66,1099.8H390v3.74h-7.87v4h6.7v3.71h-6.7v4.52h8.18v3.74H377.66Z"/><path class="cls-2" d="M394.13,1099.8h7.18c4.28,0,7.69,1.57,7.69,6.34,0,4.62-3.53,6.67-7.69,6.67h-2.71v6.67h-4.46Zm6.91,9.47c2.44,0,3.62-1.09,3.62-3.14s-1.27-2.81-3.62-2.81h-2.44v5.94Z"/><path class="cls-2" d="M412.38,1099.8h4.46v19.67h-4.46Z"/><path class="cls-2" d="M421.43,1099.8H426l5.13,9.77,2,4.34h.12c-.21-2.08-.57-4.86-.57-7.18v-6.94h4.22v19.67h-4.56l-5.13-9.8-1.93-4.28h-.12c.21,2.17.57,4.8.57,7.12v7h-4.25Z"/><path class="cls-2" d="M441.46,1099.8H453.8v3.74h-7.87v4h6.7v3.71h-6.7v4.52h8.18v3.74H441.46Z"/><path class="cls-2" d="M459.23,1113.95a7.83,7.83,0,0,0,4.83,2.05c1.84,0,2.75-.72,2.75-1.9s-1.12-1.63-2.84-2.35l-2.53-1.09a5.72,5.72,0,0,1-4-5.37c0-3.26,2.93-5.85,7-5.85a9.11,9.11,0,0,1,6.33,2.59l-2.23,2.81a6.45,6.45,0,0,0-4.1-1.57c-1.51,0-2.5.66-2.5,1.78s1.3,1.63,3,2.32l2.5,1c2.38,1,3.89,2.56,3.89,5.34,0,3.26-2.71,6.09-7.39,6.09a10.9,10.9,0,0,1-7.3-2.83Z"/><path class="cls-2" d="M475.4,1113.95a7.83,7.83,0,0,0,4.83,2.05c1.84,0,2.75-.72,2.75-1.9s-1.12-1.63-2.84-2.35l-2.53-1.09a5.72,5.72,0,0,1-4-5.37c0-3.26,2.93-5.85,7-5.85a9.11,9.11,0,0,1,6.33,2.59l-2.23,2.81a6.45,6.45,0,0,0-4.1-1.57c-1.51,0-2.5.66-2.5,1.78s1.3,1.63,3,2.32l2.5,1c2.38,1,3.89,2.56,3.89,5.34,0,3.26-2.71,6.09-7.39,6.09a10.9,10.9,0,0,1-7.3-2.83Z"/><path class="cls-2" d="M695.75,490.22h5.55c6,0,9.89,3,9.89,9.74s-3.86,9.92-9.62,9.92h-5.82Zm5.31,16.08c3.32,0,5.58-1.63,5.58-6.33s-2.26-6.15-5.58-6.15h-.84V506.3Z"/><path class="cls-2" d="M725.52,509.89l-3.77-7.09h-2.41v7.09h-4.46V490.22H722c4.16,0,7.6,1.45,7.6,6.12a5.79,5.79,0,0,1-3.5,5.67l4.43,7.87Zm-6.18-10.62h2.26c2.32,0,3.59-1,3.59-2.93s-1.27-2.59-3.59-2.59h-2.26Z"/><path class="cls-2" d="M736.26,502.89l-5.91-12.67h4.74l1.78,4.52c.51,1.48,1,2.84,1.6,4.34h.12c.54-1.51,1.12-2.87,1.66-4.34l1.75-4.52h4.65l-5.94,12.67v7h-4.43Z"/><path class="cls-2" d="M755,490.22h4.71l3.29,8.84,1.18,3.44h.12l1.18-3.44,3.2-8.84h4.71v19.67h-4.16v-7.21c0-1.93.36-4.8.57-6.7h-.12l-1.6,4.56-3,7.63H763.2l-3-7.63L758.61,496h-.12c.21,1.9.57,4.77.57,6.7v7.21H755Z"/><path class="cls-2" d="M777,500c0-6.43,3.65-10.11,8.93-10.11s8.93,3.71,8.93,10.11-3.62,10.29-8.93,10.29S777,506.39,777,500Zm13.3,0c0-3.92-1.69-6.27-4.37-6.27s-4.37,2.35-4.37,6.27,1.72,6.46,4.37,6.46S790.29,503.92,790.29,500Z"/><path class="cls-2" d="M798.43,490.22h4.43v11c0,3.86,1.21,5.19,3.41,5.19s3.5-1.33,3.5-5.19v-11h4.28v10.56c0,6.61-2.68,9.47-7.78,9.47s-7.84-2.87-7.84-9.47Z"/><path class="cls-2" d="M822.38,494H817v-3.74h15.26V494h-5.4v15.93h-4.43Z"/><path class="cls-2" d="M835.26,490.22h4.46v7.57h6.79v-7.57H851v19.67h-4.43v-8.21h-6.79v8.21h-4.46Z"/><path class="cls-2" d="M950.4,490.22h4.46v19.67H950.4Z"/><path class="cls-2" d="M959.45,490.22H964l5.13,9.77,2,4.34h.12c-.21-2.08-.57-4.86-.57-7.18v-6.94h4.22v19.67h-4.56l-5.13-9.8-1.93-4.28h-.12c.21,2.17.57,4.8.57,7.12v7h-4.25Z"/><path class="cls-2" d="M987.92,489.86a8.27,8.27,0,0,1,5.82,2.56l-2.44,2.75a4.64,4.64,0,0,0-3.32-1.48c-2.75,0-4.89,2.38-4.89,6.34s1.9,6.39,4.77,6.39a4.82,4.82,0,0,0,3.74-1.75l2.44,2.68a8,8,0,0,1-6.24,2.9c-5.1,0-9.26-3.47-9.26-10.08S982.86,489.86,987.92,489.86Z"/><path class="cls-2" d="M1007.62,509.89l-3.77-7.09h-2.41v7.09H997V490.22h7.09c4.16,0,7.6,1.45,7.6,6.12a5.79,5.79,0,0,1-3.5,5.67l4.43,7.87Zm-6.18-10.62h2.26c2.32,0,3.59-1,3.59-2.93s-1.27-2.59-3.59-2.59h-2.26Z"/><path class="cls-2" d="M1015.53,490.22h12.34V494H1020v4h6.7v3.71H1020v4.52h8.17v3.74h-12.64Z"/><path class="cls-2" d="M1041.26,505.21h-6l-1.21,4.68h-4.52l6.18-19.67H1041l6.18,19.67h-4.71Zm-.91-3.47-.48-1.81c-.54-2-1.06-4.28-1.6-6.33h-.12c-.45,2.08-1,4.37-1.54,6.33l-.48,1.81Z"/><path class="cls-2" d="M1050.52,504.37a7.83,7.83,0,0,0,4.83,2.05c1.84,0,2.75-.72,2.75-1.9s-1.12-1.63-2.84-2.35l-2.53-1.09a5.72,5.72,0,0,1-4-5.37c0-3.26,2.93-5.85,7-5.85a9.11,9.11,0,0,1,6.34,2.59l-2.23,2.81a6.45,6.45,0,0,0-4.1-1.57c-1.51,0-2.5.66-2.5,1.78s1.3,1.63,3,2.32l2.5,1c2.38,1,3.89,2.56,3.89,5.34,0,3.26-2.71,6.09-7.39,6.09a10.9,10.9,0,0,1-7.3-2.84Z"/><path class="cls-2" d="M1065.93,490.22h12.34V494h-7.87v4h6.7v3.71h-6.7v4.52h8.17v3.74h-12.64Z"/><path class="cls-2" d="M1082.4,490.22H1088c6,0,9.89,3,9.89,9.74s-3.86,9.92-9.62,9.92h-5.82Zm5.31,16.08c3.32,0,5.58-1.63,5.58-6.33s-2.26-6.15-5.58-6.15h-.84V506.3Z"/><path class="cls-2" d="M981.67,539h-5.43v-3.74H991.5V539h-5.4v15.93h-4.43Z"/><path class="cls-2" d="M994.55,535.22H999v7.57h6.79v-7.57h4.43v19.67h-4.43v-8.21H999v8.21h-4.46Z"/><path class="cls-2" d="M1014.82,535.22h4.46v19.67h-4.46Z"/><path class="cls-2" d="M1034.52,554.89l-3.77-7.09h-2.41v7.09h-4.46V535.22H1031c4.16,0,7.6,1.45,7.6,6.12a5.79,5.79,0,0,1-3.5,5.67l4.43,7.87Zm-6.18-10.62h2.26c2.32,0,3.59-1,3.59-2.93s-1.27-2.59-3.59-2.59h-2.26Z"/><path class="cls-2" d="M1043.3,549.37a7.83,7.83,0,0,0,4.83,2.05c1.84,0,2.75-.72,2.75-1.9s-1.12-1.63-2.83-2.35l-2.53-1.09a5.72,5.72,0,0,1-4-5.37c0-3.26,2.93-5.85,7-5.85a9.11,9.11,0,0,1,6.34,2.59l-2.23,2.81a6.45,6.45,0,0,0-4.1-1.57c-1.51,0-2.5.66-2.5,1.78s1.3,1.63,3,2.32l2.5,1c2.38,1,3.89,2.56,3.89,5.34,0,3.26-2.71,6.09-7.39,6.09a10.9,10.9,0,0,1-7.3-2.84Z"/><path class="cls-2" d="M1062,539h-5.43v-3.74h15.26V539h-5.4v15.93H1062Z"/><path class="cls-2" d="M693.85,803.8h4.55l1.36,9.2c.27,2.05.54,4.13.81,6.21h.12c.36-2.08.75-4.16,1.15-6.21l2.11-9.2h3.77l2.14,9.2c.39,2,.78,4.1,1.18,6.21h.12c.24-2.11.51-4.19.78-6.21l1.36-9.2h4.25l-3.5,19.67h-5.58l-1.93-8.93c-.3-1.51-.57-3.11-.78-4.55h-.12c-.24,1.45-.48,3-.78,4.55L703,823.47H697.5Z"/><path class="cls-2" d="M720.24,803.8h12.34v3.74h-7.87v4h6.7v3.71h-6.7v4.52h8.18v3.74H720.24Z"/><path class="cls-2" d="M746,818.79h-6l-1.21,4.68h-4.53l6.18-19.67h5.31l6.18,19.67h-4.71Zm-.9-3.47-.48-1.81c-.54-2-1.06-4.28-1.6-6.33h-.12c-.45,2.08-1,4.37-1.54,6.33l-.48,1.81Z"/><path class="cls-2" d="M753.94,803.8h4.46v8.05h.09l5.88-8.05h4.86l-5.94,7.84,7.06,11.83h-4.89l-4.77-8.3-2.29,3v5.28h-4.46Z"/><path class="cls-2" d="M772.43,803.8H777l5.13,9.77,2,4.34h.12c-.21-2.08-.57-4.86-.57-7.18V803.8h4.22v19.67h-4.56l-5.13-9.8-1.93-4.28h-.12c.21,2.17.57,4.8.57,7.12v7h-4.25Z"/><path class="cls-2" d="M792.46,803.8h12.34v3.74h-7.87v4h6.7v3.71h-6.7v4.52h8.17v3.74H792.46Z"/><path class="cls-2" d="M810.22,817.95a7.83,7.83,0,0,0,4.83,2.05c1.84,0,2.75-.72,2.75-1.9s-1.12-1.63-2.83-2.35l-2.53-1.09a5.72,5.72,0,0,1-4-5.37c0-3.26,2.93-5.85,7-5.85a9.11,9.11,0,0,1,6.33,2.59l-2.23,2.81a6.45,6.45,0,0,0-4.1-1.57c-1.51,0-2.5.66-2.5,1.78s1.3,1.63,3,2.32l2.5,1c2.38,1,3.89,2.56,3.89,5.34,0,3.26-2.71,6.09-7.39,6.09a10.9,10.9,0,0,1-7.3-2.84Z"/><path class="cls-2" d="M826.39,817.95a7.83,7.83,0,0,0,4.83,2.05c1.84,0,2.75-.72,2.75-1.9s-1.12-1.63-2.83-2.35l-2.53-1.09a5.72,5.72,0,0,1-4-5.37c0-3.26,2.93-5.85,7-5.85a9.11,9.11,0,0,1,6.33,2.59l-2.23,2.81a6.45,6.45,0,0,0-4.1-1.57c-1.51,0-2.5.66-2.5,1.78s1.3,1.63,3,2.32l2.5,1c2.38,1,3.89,2.56,3.89,5.34,0,3.26-2.71,6.09-7.39,6.09a10.9,10.9,0,0,1-7.3-2.84Z"/><path class="cls-2" d="M953.4,803.8h4.46v7.57h6.79V803.8h4.43v19.67h-4.43v-8.21h-6.79v8.21H953.4Z"/><path class="cls-2" d="M973.67,803.8H986v3.74h-7.87v4h6.7v3.71h-6.7v4.52h8.17v3.74H973.67Z"/><path class="cls-2" d="M999.4,818.79h-6l-1.21,4.68h-4.52l6.18-19.67h5.31l6.18,19.67h-4.71Zm-.91-3.47-.48-1.81c-.54-2-1.06-4.28-1.6-6.33h-.12c-.45,2.08-1,4.37-1.54,6.33l-.48,1.81Z"/><path class="cls-2" d="M1007.36,803.8h5.55c6,0,9.89,3,9.89,9.74s-3.86,9.92-9.62,9.92h-5.82Zm5.31,16.08c3.32,0,5.58-1.63,5.58-6.34s-2.26-6.15-5.58-6.15h-.84v12.49Z"/><path class="cls-2" d="M1035.45,818.79h-6l-1.21,4.68h-4.53l6.18-19.67h5.31l6.18,19.67h-4.71Zm-.9-3.47-.48-1.81c-.54-2-1.06-4.28-1.6-6.33h-.12c-.45,2.08-1,4.37-1.54,6.33l-.48,1.81Z"/><path class="cls-2" d="M1051.56,803.44a8.27,8.27,0,0,1,5.82,2.56l-2.44,2.75a4.64,4.64,0,0,0-3.32-1.48c-2.75,0-4.89,2.38-4.89,6.34s1.9,6.39,4.77,6.39a4.82,4.82,0,0,0,3.74-1.75l2.44,2.68a8,8,0,0,1-6.24,2.9c-5.1,0-9.26-3.47-9.26-10.08S1046.49,803.44,1051.56,803.44Z"/><path class="cls-2" d="M1060.61,803.8h4.46v7.57h6.79V803.8h4.43v19.67h-4.43v-8.21h-6.79v8.21h-4.46Z"/><path class="cls-2" d="M1080.88,803.8h12.34v3.74h-7.87v4h6.7v3.71h-6.7v4.52h8.18v3.74h-12.64Z"/><path class="cls-2" d="M715.07,1099.8h6.73c4.1,0,7.27,1.12,7.27,4.89a4.32,4.32,0,0,1-3.32,4.25v.12c2.81.51,4.28,2,4.28,4.62,0,4-3.38,5.79-7.66,5.79h-7.3Zm6.52,7.93c2.17,0,3.14-.93,3.14-2.41s-1-2.08-3.08-2.08h-2.11v4.49Zm.42,8.3c2.41,0,3.68-.91,3.68-2.68s-1.24-2.47-3.68-2.47h-2.47V1116Z"/><path class="cls-2" d="M733.29,1099.8h4.46v15.93h7.75v3.74H733.29Z"/><path class="cls-2" d="M747.65,1099.8h4.43v11c0,3.86,1.21,5.19,3.41,5.19s3.5-1.33,3.5-5.19v-11h4.28v10.56c0,6.61-2.69,9.47-7.78,9.47s-7.84-2.87-7.84-9.47Z"/><path class="cls-2" d="M778.39,1119.47l-3.77-7.09H772.2v7.09h-4.46V1099.8h7.09c4.16,0,7.6,1.45,7.6,6.12a5.79,5.79,0,0,1-3.5,5.67l4.43,7.87Zm-6.18-10.62h2.26c2.32,0,3.59-1,3.59-2.93s-1.27-2.59-3.59-2.59H772.2Z"/><path class="cls-2" d="M796.94,1119.47l-3.77-7.09h-2.41v7.09h-4.46V1099.8h7.09c4.16,0,7.6,1.45,7.6,6.12a5.79,5.79,0,0,1-3.5,5.67l4.43,7.87Zm-6.18-10.62H793c2.32,0,3.59-1,3.59-2.93s-1.27-2.59-3.59-2.59h-2.26Z"/><path class="cls-2" d="M804.84,1099.8h12.34v3.74h-7.87v4H816v3.71h-6.7v4.52h8.17v3.74H804.84Z"/><path class="cls-2" d="M821.31,1099.8h5.55c6,0,9.89,3,9.89,9.74s-3.86,9.92-9.62,9.92h-5.82Zm5.31,16.08c3.32,0,5.58-1.63,5.58-6.34s-2.26-6.15-5.58-6.15h-.84v12.49Z"/><path class="cls-2" d="M958,1099.8h12.43v3.74h-8v4.56h6.79v3.74H962.5v7.63H958Z"/><path class="cls-2" d="M984.46,1119.47l-3.77-7.09h-2.41v7.09h-4.46V1099.8h7.09c4.16,0,7.6,1.45,7.6,6.12a5.79,5.79,0,0,1-3.5,5.67l4.43,7.87Zm-6.18-10.62h2.26c2.32,0,3.59-1,3.59-2.93s-1.27-2.59-3.59-2.59h-2.26Z"/><path class="cls-2" d="M992.36,1099.8h12.34v3.74h-7.87v4h6.7v3.71h-6.7v4.52H1005v3.74H992.36Z"/><path class="cls-2" d="M1026.69,1124.21a8.26,8.26,0,0,1-3.47.63,8.89,8.89,0,0,1-8.51-5.22c-4.19-.87-6.91-4.52-6.91-10.08,0-6.43,3.62-10.11,8.93-10.11s8.93,3.71,8.93,10.11c0,5.28-2.44,8.84-6.24,9.92a5,5,0,0,0,4.31,1.84,6.38,6.38,0,0,0,2.17-.36Zm-10-8.21c2.69,0,4.37-2.5,4.37-6.46s-1.69-6.28-4.37-6.28-4.37,2.35-4.37,6.28S1014,1116,1016.73,1116Z"/><path class="cls-2" d="M1029.34,1099.8h4.43v11c0,3.86,1.21,5.19,3.41,5.19s3.5-1.33,3.5-5.19v-11H1045v10.56c0,6.61-2.69,9.47-7.78,9.47s-7.84-2.87-7.84-9.47Z"/><path class="cls-2" d="M1049.43,1099.8h12.34v3.74h-7.87v4h6.7v3.71h-6.7v4.52h8.17v3.74h-12.64Z"/><path class="cls-2" d="M1065.9,1099.8h4.56l5.13,9.77,2,4.34h.12c-.21-2.08-.57-4.86-.57-7.18v-6.94h4.22v19.67h-4.56l-5.13-9.8-1.93-4.28h-.12c.21,2.17.57,4.8.57,7.12v7h-4.25Z"/><path class="cls-2" d="M1089.8,1103.54h-5.43v-3.74h15.26v3.74h-5.4v15.93h-4.43Z"/><path class="cls-2" d="M953.31,1143.76h4.43v11c0,3.86,1.21,5.19,3.41,5.19s3.5-1.33,3.5-5.19v-11h4.28v10.56c0,6.61-2.69,9.47-7.78,9.47s-7.84-2.87-7.84-9.47Z"/><path class="cls-2" d="M984,1163.43l-3.77-7.09h-2.41v7.09H973.4v-19.67h7.09c4.16,0,7.6,1.45,7.6,6.12a5.79,5.79,0,0,1-3.5,5.67l4.43,7.87Zm-6.18-10.62h2.26c2.32,0,3.59-1,3.59-2.93s-1.27-2.59-3.59-2.59h-2.26Z"/><path class="cls-2" d="M992,1143.76h4.46v19.67H992Z"/><path class="cls-2" d="M1001,1143.76h4.56l5.13,9.77,2,4.34h.12c-.21-2.08-.57-4.86-.57-7.18v-6.94h4.22v19.67h-4.56l-5.13-9.8-1.93-4.28h-.12c.21,2.17.57,4.8.57,7.12v7H1001Z"/><path class="cls-2" d="M1030.29,1158.75h-6l-1.21,4.68h-4.53l6.18-19.67H1030l6.18,19.67h-4.71Zm-.9-3.47-.48-1.81c-.54-2-1.06-4.28-1.6-6.34h-.12c-.45,2.08-1,4.37-1.54,6.34l-.48,1.81Z"/><path class="cls-2" d="M1040.91,1147.5h-5.43v-3.74h15.26v3.74h-5.4v15.93h-4.43Z"/><path class="cls-2" d="M1053.79,1143.76h4.46v19.67h-4.46Z"/><path class="cls-2" d="M1061.9,1153.51c0-6.43,3.65-10.11,8.93-10.11s8.93,3.71,8.93,10.11-3.62,10.29-8.93,10.29S1061.9,1159.93,1061.9,1153.51Zm13.3,0c0-3.92-1.69-6.28-4.37-6.28s-4.37,2.35-4.37,6.28,1.72,6.45,4.37,6.45S1075.21,1157.46,1075.21,1153.51Z"/><path class="cls-2" d="M1083.44,1143.76H1088l5.13,9.77,2,4.34h.12c-.21-2.08-.57-4.86-.57-7.18v-6.94h4.22v19.67h-4.56l-5.13-9.8-1.93-4.28h-.12c.21,2.17.57,4.8.57,7.12v7h-4.25Z"/></g></g></svg>